<?xml version="1.0" encoding="UTF-8" standalone="no"?>
<!-- Created with PhysiCell (http://PhysiCell.MathCancer.org/) -->
<svg 
 xmlns:dc="http://purl.org/dc/elements/1.1/" 
 xmlns:cc="http://creativecommons.org/ns#" 
 xmlns:rdf="http://www.w3.org/1999/02/22-rdf-syntax-ns#" 
 xmlns:svg="http://www.w3.org/2000/svg" 
 xmlns="http://www.w3.org/2000/svg" 
 version="1.1" 
 width="3000" 
 height="3210" 
 id="svg2">
  <rect x="0" y="0" width="3000" height="3210" stroke-width="6" stroke="white" fill="white"/>
  <text x="37.5" y="90"
   font-family="Arial" font-size="75" fill="black" >
   Current time: 0 days, 4 hours, and 10.01 minutes, z = 0.00 &#956;m
  </text>
  <text x="37.5" y="172.5"
   font-family="Arial" font-size="71.25" fill="black" >
   120 agents
  </text>
 <g id="tissue" 
    transform="translate(0,3210) scale(1,-1)">
  <g id="ECM">
  </g>
  <g id="cells">
   <g id="cell327">
  <circle cx="506.42" cy="638.319" r="20" stroke-width="0.5" stroke="red" fill="red"/>
  <circle cx="506.42" cy="638.319" r="12.0096" stroke-width="0.5" stroke="black" fill="magenta"/>
   </g>
   <g id="cell1">
  <circle cx="1478.5" cy="82.5" r="20" stroke-width="0.5" stroke="red" fill="red"/>
  <circle cx="1478.5" cy="82.5" r="12.0096" stroke-width="0.5" stroke="black" fill="magenta"/>
   </g>
   <g id="cell264">
  <circle cx="118.5" cy="1774.5" r="20" stroke-width="0.5" stroke="red" fill="red"/>
  <circle cx="118.5" cy="1774.5" r="12.0096" stroke-width="0.5" stroke="black" fill="magenta"/>
   </g>
   <g id="cell265">
  <circle cx="122.5" cy="1866.5" r="20" stroke-width="0.5" stroke="red" fill="red"/>
  <circle cx="122.5" cy="1866.5" r="12.0096" stroke-width="0.5" stroke="black" fill="magenta"/>
   </g>
   <g id="cell253">
  <circle cx="421.092" cy="686.829" r="20" stroke-width="0.5" stroke="red" fill="red"/>
  <circle cx="421.092" cy="686.829" r="12.0096" stroke-width="0.5" stroke="black" fill="magenta"/>
   </g>
   <g id="cell252">
  <circle cx="142.962" cy="406.193" r="20" stroke-width="0.5" stroke="red" fill="red"/>
  <circle cx="142.962" cy="406.193" r="12.0096" stroke-width="0.5" stroke="black" fill="magenta"/>
   </g>
   <g id="cell146">
  <circle cx="1026.5" cy="346.5" r="20" stroke-width="0.5" stroke="red" fill="red"/>
  <circle cx="1026.5" cy="346.5" r="12.0096" stroke-width="0.5" stroke="black" fill="magenta"/>
   </g>
   <g id="cell326">
  <circle cx="459.63" cy="677.276" r="20" stroke-width="0.5" stroke="red" fill="red"/>
  <circle cx="459.63" cy="677.276" r="12.0096" stroke-width="0.5" stroke="black" fill="magenta"/>
   </g>
   <g id="cell325">
  <circle cx="22.0435" cy="1352.4" r="20" stroke-width="0.5" stroke="red" fill="red"/>
  <circle cx="22.0435" cy="1352.4" r="12.0096" stroke-width="0.5" stroke="black" fill="magenta"/>
   </g>
   <g id="cell176">
  <circle cx="1010.51" cy="198.492" r="20" stroke-width="0.5" stroke="red" fill="red"/>
  <circle cx="1010.51" cy="198.492" r="12.0096" stroke-width="0.5" stroke="black" fill="magenta"/>
   </g>
   <g id="cell177">
  <circle cx="1076.65" cy="235.268" r="20" stroke-width="0.5" stroke="red" fill="red"/>
  <circle cx="1076.65" cy="235.268" r="12.0096" stroke-width="0.5" stroke="black" fill="magenta"/>
   </g>
   <g id="cell128">
  <circle cx="1138.5" cy="270.5" r="20" stroke-width="0.5" stroke="red" fill="red"/>
  <circle cx="1138.5" cy="270.5" r="12.0096" stroke-width="0.5" stroke="black" fill="magenta"/>
   </g>
   <g id="cell166">
  <circle cx="438.773" cy="371.462" r="20" stroke-width="0.5" stroke="red" fill="red"/>
  <circle cx="438.773" cy="371.462" r="12.0096" stroke-width="0.5" stroke="black" fill="magenta"/>
   </g>
   <g id="cell205">
  <circle cx="702.5" cy="566.5" r="20" stroke-width="0.5" stroke="red" fill="red"/>
  <circle cx="702.5" cy="566.5" r="12.0096" stroke-width="0.5" stroke="black" fill="magenta"/>
   </g>
   <g id="cell312">
  <circle cx="446.5" cy="1186.5" r="20" stroke-width="0.5" stroke="red" fill="red"/>
  <circle cx="446.5" cy="1186.5" r="12.0096" stroke-width="0.5" stroke="black" fill="magenta"/>
   </g>
   <g id="cell218">
  <circle cx="254.308" cy="1548.77" r="20" stroke-width="0.5" stroke="red" fill="red"/>
  <circle cx="254.308" cy="1548.77" r="12.0096" stroke-width="0.5" stroke="black" fill="magenta"/>
   </g>
   <g id="cell175">
  <circle cx="945.658" cy="54.7808" r="20" stroke-width="0.5" stroke="red" fill="red"/>
  <circle cx="945.658" cy="54.7808" r="12.0096" stroke-width="0.5" stroke="black" fill="magenta"/>
   </g>
   <g id="cell219">
  <circle cx="258.692" cy="1588.23" r="20" stroke-width="0.5" stroke="red" fill="red"/>
  <circle cx="258.692" cy="1588.23" r="12.0096" stroke-width="0.5" stroke="black" fill="magenta"/>
   </g>
   <g id="cell145">
  <circle cx="886.5" cy="526.5" r="20" stroke-width="0.5" stroke="red" fill="red"/>
  <circle cx="886.5" cy="526.5" r="12.0096" stroke-width="0.5" stroke="black" fill="magenta"/>
   </g>
   <g id="cell197">
  <circle cx="124.652" cy="768.037" r="20" stroke-width="0.5" stroke="red" fill="red"/>
  <circle cx="124.652" cy="768.037" r="12.0096" stroke-width="0.5" stroke="black" fill="magenta"/>
   </g>
   <g id="cell299">
  <circle cx="198.5" cy="1814.5" r="20" stroke-width="0.5" stroke="red" fill="red"/>
  <circle cx="198.5" cy="1814.5" r="12.0096" stroke-width="0.5" stroke="black" fill="magenta"/>
   </g>
   <g id="cell324">
  <circle cx="29.6827" cy="1319.97" r="20" stroke-width="0.5" stroke="red" fill="red"/>
  <circle cx="29.6827" cy="1319.97" r="12.0096" stroke-width="0.5" stroke="black" fill="magenta"/>
   </g>
   <g id="cell309">
  <circle cx="94.5" cy="158.5" r="20" stroke-width="0.5" stroke="red" fill="red"/>
  <circle cx="94.5" cy="158.5" r="12.0096" stroke-width="0.5" stroke="black" fill="magenta"/>
   </g>
   <g id="cell127">
  <circle cx="1096.35" cy="269.732" r="20" stroke-width="0.5" stroke="red" fill="red"/>
  <circle cx="1096.35" cy="269.732" r="12.0096" stroke-width="0.5" stroke="black" fill="magenta"/>
   </g>
   <g id="cell242">
  <circle cx="582.5" cy="630.5" r="20" stroke-width="0.5" stroke="red" fill="red"/>
  <circle cx="582.5" cy="630.5" r="12.0096" stroke-width="0.5" stroke="black" fill="magenta"/>
   </g>
   <g id="cell165">
  <circle cx="342.5" cy="314.5" r="20" stroke-width="0.5" stroke="red" fill="red"/>
  <circle cx="342.5" cy="314.5" r="12.0096" stroke-width="0.5" stroke="black" fill="magenta"/>
   </g>
   <g id="cell255">
  <circle cx="362.5" cy="1214.5" r="20" stroke-width="0.5" stroke="red" fill="red"/>
  <circle cx="362.5" cy="1214.5" r="12.0096" stroke-width="0.5" stroke="black" fill="magenta"/>
   </g>
   <g id="cell276">
  <circle cx="688.564" cy="879.721" r="20" stroke-width="0.5" stroke="red" fill="red"/>
  <circle cx="688.564" cy="879.721" r="12.0096" stroke-width="0.5" stroke="black" fill="magenta"/>
   </g>
   <g id="cell307">
  <circle cx="482.5" cy="874.5" r="20" stroke-width="0.5" stroke="red" fill="red"/>
  <circle cx="482.5" cy="874.5" r="12.0096" stroke-width="0.5" stroke="black" fill="magenta"/>
   </g>
   <g id="cell295">
  <circle cx="66.5" cy="1658.5" r="20" stroke-width="0.5" stroke="red" fill="red"/>
  <circle cx="66.5" cy="1658.5" r="12.0096" stroke-width="0.5" stroke="black" fill="magenta"/>
   </g>
   <g id="cell174">
  <circle cx="966.5" cy="306.5" r="20" stroke-width="0.5" stroke="red" fill="red"/>
  <circle cx="966.5" cy="306.5" r="12.0096" stroke-width="0.5" stroke="black" fill="magenta"/>
   </g>
   <g id="cell126">
  <circle cx="1118.5" cy="194.5" r="20" stroke-width="0.5" stroke="red" fill="red"/>
  <circle cx="1118.5" cy="194.5" r="12.0096" stroke-width="0.5" stroke="black" fill="magenta"/>
   </g>
   <g id="cell164">
  <circle cx="262.5" cy="366.5" r="20" stroke-width="0.5" stroke="red" fill="red"/>
  <circle cx="262.5" cy="366.5" r="12.0096" stroke-width="0.5" stroke="black" fill="magenta"/>
   </g>
   <g id="cell217">
  <circle cx="470.777" cy="715.395" r="20" stroke-width="0.5" stroke="red" fill="red"/>
  <circle cx="470.777" cy="715.395" r="12.0096" stroke-width="0.5" stroke="black" fill="magenta"/>
   </g>
   <g id="cell247">
  <circle cx="800.683" cy="606.259" r="20" stroke-width="0.5" stroke="red" fill="red"/>
  <circle cx="800.683" cy="606.259" r="12.0096" stroke-width="0.5" stroke="black" fill="magenta"/>
   </g>
   <g id="cell147">
  <circle cx="1090.23" cy="451.462" r="20" stroke-width="0.5" stroke="red" fill="red"/>
  <circle cx="1090.23" cy="451.462" r="12.0096" stroke-width="0.5" stroke="black" fill="magenta"/>
   </g>
   <g id="cell125">
  <circle cx="1178.31" cy="104.231" r="20" stroke-width="0.5" stroke="red" fill="red"/>
  <circle cx="1178.31" cy="104.231" r="12.0096" stroke-width="0.5" stroke="black" fill="magenta"/>
   </g>
   <g id="cell311">
  <circle cx="450.5" cy="1146.5" r="20" stroke-width="0.5" stroke="red" fill="red"/>
  <circle cx="450.5" cy="1146.5" r="12.0096" stroke-width="0.5" stroke="black" fill="magenta"/>
   </g>
   <g id="cell148">
  <circle cx="1299.66" cy="322.756" r="20" stroke-width="0.5" stroke="red" fill="red"/>
  <circle cx="1299.66" cy="322.756" r="12.0096" stroke-width="0.5" stroke="black" fill="magenta"/>
   </g>
   <g id="cell124">
  <circle cx="1206.32" cy="162.58" r="20" stroke-width="0.5" stroke="red" fill="red"/>
  <circle cx="1206.32" cy="162.58" r="12.0096" stroke-width="0.5" stroke="black" fill="magenta"/>
   </g>
   <g id="cell198">
  <circle cx="92.3484" cy="744.963" r="20" stroke-width="0.5" stroke="red" fill="red"/>
  <circle cx="92.3484" cy="744.963" r="12.0096" stroke-width="0.5" stroke="black" fill="magenta"/>
   </g>
   <g id="cell173">
  <circle cx="882.5" cy="322.5" r="20" stroke-width="0.5" stroke="red" fill="red"/>
  <circle cx="882.5" cy="322.5" r="12.0096" stroke-width="0.5" stroke="black" fill="magenta"/>
   </g>
   <g id="cell290">
  <circle cx="318.5" cy="1142.5" r="20" stroke-width="0.5" stroke="red" fill="red"/>
  <circle cx="318.5" cy="1142.5" r="12.0096" stroke-width="0.5" stroke="black" fill="magenta"/>
   </g>
   <g id="cell251">
  <circle cx="138.038" cy="366.807" r="20" stroke-width="0.5" stroke="red" fill="red"/>
  <circle cx="138.038" cy="366.807" r="12.0096" stroke-width="0.5" stroke="black" fill="magenta"/>
   </g>
   <g id="cell298">
  <circle cx="142.5" cy="1826.5" r="20" stroke-width="0.5" stroke="red" fill="red"/>
  <circle cx="142.5" cy="1826.5" r="12.0096" stroke-width="0.5" stroke="black" fill="magenta"/>
   </g>
   <g id="cell162">
  <circle cx="305.102" cy="170.153" r="20" stroke-width="0.5" stroke="red" fill="red"/>
  <circle cx="305.102" cy="170.153" r="12.0096" stroke-width="0.5" stroke="black" fill="magenta"/>
   </g>
   <g id="cell289">
  <circle cx="334.5" cy="1102.5" r="20" stroke-width="0.5" stroke="red" fill="red"/>
  <circle cx="334.5" cy="1102.5" r="12.0096" stroke-width="0.5" stroke="black" fill="magenta"/>
   </g>
   <g id="cell172">
  <circle cx="918.5" cy="458.5" r="20" stroke-width="0.5" stroke="red" fill="red"/>
  <circle cx="918.5" cy="458.5" r="12.0096" stroke-width="0.5" stroke="black" fill="magenta"/>
   </g>
   <g id="cell123">
  <circle cx="1242.68" cy="146.42" r="20" stroke-width="0.5" stroke="red" fill="red"/>
  <circle cx="1242.68" cy="146.42" r="12.0096" stroke-width="0.5" stroke="black" fill="magenta"/>
   </g>
   <g id="cell282">
  <circle cx="537.75" cy="865" r="20" stroke-width="0.5" stroke="red" fill="red"/>
  <circle cx="537.75" cy="865" r="12.0096" stroke-width="0.5" stroke="black" fill="magenta"/>
   </g>
   <g id="cell216">
  <circle cx="429.75" cy="411.688" r="20" stroke-width="0.5" stroke="red" fill="red"/>
  <circle cx="429.75" cy="411.688" r="12.0096" stroke-width="0.5" stroke="black" fill="magenta"/>
   </g>
   <g id="cell122">
  <circle cx="1274.5" cy="178.5" r="20" stroke-width="0.5" stroke="red" fill="red"/>
  <circle cx="1274.5" cy="178.5" r="12.0096" stroke-width="0.5" stroke="black" fill="magenta"/>
   </g>
   <g id="cell297">
  <circle cx="42.5" cy="1606.5" r="20" stroke-width="0.5" stroke="red" fill="red"/>
  <circle cx="42.5" cy="1606.5" r="12.0096" stroke-width="0.5" stroke="black" fill="magenta"/>
   </g>
   <g id="cell294">
  <circle cx="86.5" cy="1586.5" r="20" stroke-width="0.5" stroke="red" fill="red"/>
  <circle cx="86.5" cy="1586.5" r="12.0096" stroke-width="0.5" stroke="black" fill="magenta"/>
   </g>
   <g id="cell322">
  <circle cx="555.25" cy="900" r="20" stroke-width="0.5" stroke="red" fill="red"/>
  <circle cx="555.25" cy="900" r="12.0096" stroke-width="0.5" stroke="black" fill="magenta"/>
   </g>
   <g id="cell215">
  <circle cx="470.5" cy="438.5" r="20" stroke-width="0.5" stroke="red" fill="red"/>
  <circle cx="470.5" cy="438.5" r="12.0096" stroke-width="0.5" stroke="black" fill="magenta"/>
   </g>
   <g id="cell214">
  <circle cx="399.643" cy="366.149" r="20" stroke-width="0.5" stroke="red" fill="red"/>
  <circle cx="399.643" cy="366.149" r="12.0096" stroke-width="0.5" stroke="black" fill="magenta"/>
   </g>
   <g id="cell254">
  <circle cx="430.5" cy="1098.5" r="20" stroke-width="0.5" stroke="red" fill="red"/>
  <circle cx="430.5" cy="1098.5" r="12.0096" stroke-width="0.5" stroke="black" fill="magenta"/>
   </g>
   <g id="cell213">
  <circle cx="326.5" cy="362.5" r="20" stroke-width="0.5" stroke="red" fill="red"/>
  <circle cx="326.5" cy="362.5" r="12.0096" stroke-width="0.5" stroke="black" fill="magenta"/>
   </g>
   <g id="cell212">
  <circle cx="294.5" cy="318.5" r="20" stroke-width="0.5" stroke="red" fill="red"/>
  <circle cx="294.5" cy="318.5" r="12.0096" stroke-width="0.5" stroke="black" fill="magenta"/>
   </g>
   <g id="cell243">
  <circle cx="502.5" cy="518.5" r="20" stroke-width="0.5" stroke="red" fill="red"/>
  <circle cx="502.5" cy="518.5" r="12.0096" stroke-width="0.5" stroke="black" fill="magenta"/>
   </g>
   <g id="cell151">
  <circle cx="1182.69" cy="64.7688" r="20" stroke-width="0.5" stroke="red" fill="red"/>
  <circle cx="1182.69" cy="64.7688" r="12.0096" stroke-width="0.5" stroke="black" fill="magenta"/>
   </g>
   <g id="cell195">
  <circle cx="210.5" cy="770.5" r="20" stroke-width="0.5" stroke="red" fill="red"/>
  <circle cx="210.5" cy="770.5" r="12.0096" stroke-width="0.5" stroke="black" fill="magenta"/>
   </g>
   <g id="cell259">
  <circle cx="150.5" cy="1318.5" r="20" stroke-width="0.5" stroke="red" fill="red"/>
  <circle cx="150.5" cy="1318.5" r="12.0096" stroke-width="0.5" stroke="black" fill="magenta"/>
   </g>
   <g id="cell245">
  <circle cx="754.5" cy="594.5" r="20" stroke-width="0.5" stroke="red" fill="red"/>
  <circle cx="754.5" cy="594.5" r="12.0096" stroke-width="0.5" stroke="black" fill="magenta"/>
   </g>
   <g id="cell281">
  <circle cx="576.744" cy="839.378" r="20" stroke-width="0.5" stroke="red" fill="red"/>
  <circle cx="576.744" cy="839.378" r="12.0096" stroke-width="0.5" stroke="black" fill="magenta"/>
   </g>
   <g id="cell191">
  <circle cx="222.5" cy="338.5" r="20" stroke-width="0.5" stroke="red" fill="red"/>
  <circle cx="222.5" cy="338.5" r="12.0096" stroke-width="0.5" stroke="black" fill="magenta"/>
   </g>
   <g id="cell283">
  <circle cx="530.5" cy="726.5" r="20" stroke-width="0.5" stroke="red" fill="red"/>
  <circle cx="530.5" cy="726.5" r="12.0096" stroke-width="0.5" stroke="black" fill="magenta"/>
   </g>
   <g id="cell258">
  <circle cx="270.5" cy="1126.5" r="20" stroke-width="0.5" stroke="red" fill="red"/>
  <circle cx="270.5" cy="1126.5" r="12.0096" stroke-width="0.5" stroke="black" fill="magenta"/>
   </g>
   <g id="cell286">
  <circle cx="742.259" cy="680.683" r="20" stroke-width="0.5" stroke="red" fill="red"/>
  <circle cx="742.259" cy="680.683" r="12.0096" stroke-width="0.5" stroke="black" fill="magenta"/>
   </g>
   <g id="cell280">
  <circle cx="612.256" cy="821.622" r="20" stroke-width="0.5" stroke="red" fill="red"/>
  <circle cx="612.256" cy="821.622" r="12.0096" stroke-width="0.5" stroke="black" fill="magenta"/>
   </g>
   <g id="cell192">
  <circle cx="391.25" cy="421.312" r="20" stroke-width="0.5" stroke="red" fill="red"/>
  <circle cx="391.25" cy="421.312" r="12.0096" stroke-width="0.5" stroke="black" fill="magenta"/>
   </g>
   <g id="cell246">
  <circle cx="778.741" cy="696.317" r="20" stroke-width="0.5" stroke="red" fill="red"/>
  <circle cx="778.741" cy="696.317" r="12.0096" stroke-width="0.5" stroke="black" fill="magenta"/>
   </g>
   <g id="cell285">
  <circle cx="610.5" cy="678.5" r="20" stroke-width="0.5" stroke="red" fill="red"/>
  <circle cx="610.5" cy="678.5" r="12.0096" stroke-width="0.5" stroke="black" fill="magenta"/>
   </g>
   <g id="cell131">
  <circle cx="1110.5" cy="362.5" r="20" stroke-width="0.5" stroke="red" fill="red"/>
  <circle cx="1110.5" cy="362.5" r="12.0096" stroke-width="0.5" stroke="black" fill="magenta"/>
   </g>
   <g id="cell244">
  <circle cx="710.5" cy="618.5" r="20" stroke-width="0.5" stroke="red" fill="red"/>
  <circle cx="710.5" cy="618.5" r="12.0096" stroke-width="0.5" stroke="black" fill="magenta"/>
   </g>
   <g id="cell171">
  <circle cx="934.5" cy="510.5" r="20" stroke-width="0.5" stroke="red" fill="red"/>
  <circle cx="934.5" cy="510.5" r="12.0096" stroke-width="0.5" stroke="black" fill="magenta"/>
   </g>
   <g id="cell150">
  <circle cx="1230.5" cy="102.5" r="20" stroke-width="0.5" stroke="red" fill="red"/>
  <circle cx="1230.5" cy="102.5" r="12.0096" stroke-width="0.5" stroke="black" fill="magenta"/>
   </g>
   <g id="cell279">
  <circle cx="658.5" cy="794.5" r="20" stroke-width="0.5" stroke="red" fill="red"/>
  <circle cx="658.5" cy="794.5" r="12.0096" stroke-width="0.5" stroke="black" fill="magenta"/>
   </g>
   <g id="cell161">
  <circle cx="293.886" cy="132.182" r="20" stroke-width="0.5" stroke="red" fill="red"/>
  <circle cx="293.886" cy="132.182" r="12.0096" stroke-width="0.5" stroke="black" fill="magenta"/>
   </g>
   <g id="cell278">
  <circle cx="698.5" cy="814.5" r="20" stroke-width="0.5" stroke="red" fill="red"/>
  <circle cx="698.5" cy="814.5" r="12.0096" stroke-width="0.5" stroke="black" fill="magenta"/>
   </g>
   <g id="cell257">
  <circle cx="306.5" cy="1182.5" r="20" stroke-width="0.5" stroke="red" fill="red"/>
  <circle cx="306.5" cy="1182.5" r="12.0096" stroke-width="0.5" stroke="black" fill="magenta"/>
   </g>
   <g id="cell293">
  <circle cx="170.5" cy="1470.5" r="20" stroke-width="0.5" stroke="red" fill="red"/>
  <circle cx="170.5" cy="1470.5" r="12.0096" stroke-width="0.5" stroke="black" fill="magenta"/>
   </g>
   <g id="cell284">
  <circle cx="522.58" cy="674.681" r="20" stroke-width="0.5" stroke="red" fill="red"/>
  <circle cx="522.58" cy="674.681" r="12.0096" stroke-width="0.5" stroke="black" fill="magenta"/>
   </g>
   <g id="cell310">
  <circle cx="150.5" cy="602.5" r="20" stroke-width="0.5" stroke="red" fill="red"/>
  <circle cx="150.5" cy="602.5" r="12.0096" stroke-width="0.5" stroke="black" fill="magenta"/>
   </g>
   <g id="cell317">
  <circle cx="302.5" cy="1498.5" r="20" stroke-width="0.5" stroke="red" fill="red"/>
  <circle cx="302.5" cy="1498.5" r="12.0096" stroke-width="0.5" stroke="black" fill="magenta"/>
   </g>
   <g id="cell316">
  <circle cx="192.037" cy="1504.35" r="20" stroke-width="0.5" stroke="red" fill="red"/>
  <circle cx="192.037" cy="1504.35" r="12.0096" stroke-width="0.5" stroke="black" fill="magenta"/>
   </g>
   <g id="cell321">
  <circle cx="656.228" cy="856.879" r="20" stroke-width="0.5" stroke="red" fill="red"/>
  <circle cx="656.228" cy="856.879" r="12.0096" stroke-width="0.5" stroke="black" fill="magenta"/>
   </g>
   <g id="cell170">
  <circle cx="816.317" cy="642.741" r="20" stroke-width="0.5" stroke="red" fill="red"/>
  <circle cx="816.317" cy="642.741" r="12.0096" stroke-width="0.5" stroke="black" fill="magenta"/>
   </g>
   <g id="cell315">
  <circle cx="168.963" cy="1536.65" r="20" stroke-width="0.5" stroke="red" fill="red"/>
  <circle cx="168.963" cy="1536.65" r="12.0096" stroke-width="0.5" stroke="black" fill="magenta"/>
   </g>
   <g id="cell90">
  <circle cx="659.341" cy="97.9743" r="20" stroke-width="0.5" stroke="red" fill="red"/>
  <circle cx="659.341" cy="97.9743" r="12.0096" stroke-width="0.5" stroke="black" fill="magenta"/>
   </g>
   <g id="cell91">
  <circle cx="774.5" cy="122.5" r="20" stroke-width="0.5" stroke="red" fill="red"/>
  <circle cx="774.5" cy="122.5" r="12.0096" stroke-width="0.5" stroke="black" fill="magenta"/>
   </g>
   <g id="cell196">
  <circle cx="166.5" cy="730.5" r="20" stroke-width="0.5" stroke="red" fill="red"/>
  <circle cx="166.5" cy="730.5" r="12.0096" stroke-width="0.5" stroke="black" fill="magenta"/>
   </g>
   <g id="cell121">
  <circle cx="1414.5" cy="106.5" r="20" stroke-width="0.5" stroke="red" fill="red"/>
  <circle cx="1414.5" cy="106.5" r="12.0096" stroke-width="0.5" stroke="black" fill="magenta"/>
   </g>
   <g id="cell120">
  <circle cx="1237.96" cy="12.8181" r="20" stroke-width="0.5" stroke="red" fill="red"/>
  <circle cx="1237.96" cy="12.8181" r="12.0096" stroke-width="0.5" stroke="black" fill="magenta"/>
   </g>
   <g id="cell130">
  <circle cx="1094.5" cy="326.5" r="20" stroke-width="0.5" stroke="red" fill="red"/>
  <circle cx="1094.5" cy="326.5" r="12.0096" stroke-width="0.5" stroke="black" fill="magenta"/>
   </g>
   <g id="cell256">
  <circle cx="302.5" cy="1246.5" r="20" stroke-width="0.5" stroke="red" fill="red"/>
  <circle cx="302.5" cy="1246.5" r="12.0096" stroke-width="0.5" stroke="black" fill="magenta"/>
   </g>
   <g id="cell160">
  <circle cx="238.5" cy="82.5" r="20" stroke-width="0.5" stroke="red" fill="red"/>
  <circle cx="238.5" cy="82.5" r="12.0096" stroke-width="0.5" stroke="black" fill="magenta"/>
   </g>
   <g id="cell129">
  <circle cx="1150.5" cy="330.5" r="20" stroke-width="0.5" stroke="red" fill="red"/>
  <circle cx="1150.5" cy="330.5" r="12.0096" stroke-width="0.5" stroke="black" fill="magenta"/>
   </g>
   <g id="cell179">
  <circle cx="1129.36" cy="446.149" r="20" stroke-width="0.5" stroke="red" fill="red"/>
  <circle cx="1129.36" cy="446.149" r="12.0096" stroke-width="0.5" stroke="black" fill="magenta"/>
   </g>
   <g id="cell100">
  <circle cx="1275.9" cy="80.1073" r="20" stroke-width="0.5" stroke="red" fill="red"/>
  <circle cx="1275.9" cy="80.1073" r="12.0096" stroke-width="0.5" stroke="black" fill="magenta"/>
   </g>
   <g id="cell101">
  <circle cx="1249.64" cy="50.5746" r="20" stroke-width="0.5" stroke="red" fill="red"/>
  <circle cx="1249.64" cy="50.5746" r="12.0096" stroke-width="0.5" stroke="black" fill="magenta"/>
   </g>
   <g id="cell226">
  <circle cx="194.5" cy="1950.5" r="20" stroke-width="0.5" stroke="red" fill="red"/>
  <circle cx="194.5" cy="1950.5" r="12.0096" stroke-width="0.5" stroke="black" fill="magenta"/>
   </g>
   <g id="cell149">
  <circle cx="1321.68" cy="289.734" r="20" stroke-width="0.5" stroke="red" fill="red"/>
  <circle cx="1321.68" cy="289.734" r="12.0096" stroke-width="0.5" stroke="black" fill="magenta"/>
   </g>
   <g id="cell292">
  <circle cx="90.5" cy="1322.5" r="20" stroke-width="0.5" stroke="red" fill="red"/>
  <circle cx="90.5" cy="1322.5" r="12.0096" stroke-width="0.5" stroke="black" fill="magenta"/>
   </g>
   <g id="cell314">
  <circle cx="170.5" cy="1410.5" r="20" stroke-width="0.5" stroke="red" fill="red"/>
  <circle cx="170.5" cy="1410.5" r="12.0096" stroke-width="0.5" stroke="black" fill="magenta"/>
   </g>
   <g id="cell296">
  <circle cx="142.5" cy="1614.5" r="20" stroke-width="0.5" stroke="red" fill="red"/>
  <circle cx="142.5" cy="1614.5" r="12.0096" stroke-width="0.5" stroke="black" fill="magenta"/>
   </g>
   <g id="cell178">
  <circle cx="1051.92" cy="441.889" r="20" stroke-width="0.5" stroke="red" fill="red"/>
  <circle cx="1051.92" cy="441.889" r="12.0096" stroke-width="0.5" stroke="black" fill="magenta"/>
   </g>
   <g id="cell323">
  <circle cx="43.7739" cy="1283.12" r="20" stroke-width="0.5" stroke="red" fill="red"/>
  <circle cx="43.7739" cy="1283.12" r="12.0096" stroke-width="0.5" stroke="black" fill="magenta"/>
   </g>
   <g id="cell193">
  <circle cx="477.084" cy="361.889" r="20" stroke-width="0.5" stroke="red" fill="red"/>
  <circle cx="477.084" cy="361.889" r="12.0096" stroke-width="0.5" stroke="black" fill="magenta"/>
   </g>
   <g id="cell220">
  <circle cx="198.5" cy="1590.5" r="20" stroke-width="0.5" stroke="red" fill="red"/>
  <circle cx="198.5" cy="1590.5" r="12.0096" stroke-width="0.5" stroke="black" fill="magenta"/>
   </g>
   <g id="cell111">
  <circle cx="858.5" cy="370.5" r="20" stroke-width="0.5" stroke="red" fill="red"/>
  <circle cx="858.5" cy="370.5" r="12.0096" stroke-width="0.5" stroke="black" fill="magenta"/>
   </g>
   <g id="cell112">
  <circle cx="978.46" cy="222.479" r="20" stroke-width="0.5" stroke="red" fill="red"/>
  <circle cx="978.46" cy="222.479" r="12.0096" stroke-width="0.5" stroke="black" fill="magenta"/>
   </g>
   <g id="cell113">
  <circle cx="870.5" cy="182.5" r="20" stroke-width="0.5" stroke="red" fill="red"/>
  <circle cx="870.5" cy="182.5" r="12.0096" stroke-width="0.5" stroke="black" fill="magenta"/>
   </g>
   <g id="cell114">
  <circle cx="625.659" cy="119.026" r="20" stroke-width="0.5" stroke="red" fill="red"/>
  <circle cx="625.659" cy="119.026" r="12.0096" stroke-width="0.5" stroke="black" fill="magenta"/>
   </g>
   <g id="cell115">
  <circle cx="942.653" cy="122.668" r="20" stroke-width="0.5" stroke="red" fill="red"/>
  <circle cx="942.653" cy="122.668" r="12.0096" stroke-width="0.5" stroke="black" fill="magenta"/>
   </g>
   <g id="cell116">
  <circle cx="914.598" cy="94.5963" r="20" stroke-width="0.5" stroke="red" fill="red"/>
  <circle cx="914.598" cy="94.5963" r="12.0096" stroke-width="0.5" stroke="black" fill="magenta"/>
   </g>
   <g id="cell117">
  <circle cx="966.506" cy="90.4935" r="20" stroke-width="0.5" stroke="red" fill="red"/>
  <circle cx="966.506" cy="90.4935" r="12.0096" stroke-width="0.5" stroke="black" fill="magenta"/>
   </g>
   <g id="cell118">
  <circle cx="983.342" cy="42.2192" r="20" stroke-width="0.5" stroke="red" fill="red"/>
  <circle cx="983.342" cy="42.2192" r="12.0096" stroke-width="0.5" stroke="black" fill="magenta"/>
   </g>
   <g id="cell119">
  <circle cx="1006.53" cy="250.529" r="20" stroke-width="0.5" stroke="red" fill="red"/>
  <circle cx="1006.53" cy="250.529" r="12.0096" stroke-width="0.5" stroke="black" fill="magenta"/>
   </g>
  </g>
 </g>
  <rect x="2725" y="3105" width="200" height="30" stroke-width="6" stroke="rgb(255,255,255)" fill="rgb(0,0,0)"/>
  <text x="2743.75" y="3086.25"
   font-family="Arial" font-size="75" fill="black" >
   200 &#956;m
  </text>
  <text x="75" y="3135"
   font-family="Arial" font-size="56.25" fill="black" >
   0 days, 0 hours, 1 minutes, and 4.5011 seconds
  </text>
  <rect x="0" y="210" width="3000" height="3000" stroke-width="6" stroke="rgb(0,0,0)" fill="none"/>
</svg>
