<?xml version="1.0" encoding="UTF-8" standalone="no"?>
<!-- Created with PhysiCell (http://PhysiCell.MathCancer.org/) -->
<svg 
 xmlns:dc="http://purl.org/dc/elements/1.1/" 
 xmlns:cc="http://creativecommons.org/ns#" 
 xmlns:rdf="http://www.w3.org/1999/02/22-rdf-syntax-ns#" 
 xmlns:svg="http://www.w3.org/2000/svg" 
 xmlns="http://www.w3.org/2000/svg" 
 version="1.1" 
 width="40" 
 height="42.8" 
 id="svg2">
  <rect x="0" y="0" width="40" height="42.8" stroke-width="0.08" stroke="white" fill="white"/>
  <text x="0.5" y="1.2"
   font-family="Arial" font-size="1" fill="black" >
   Current time: 0 days, 0 hours, and 1.00 minutes, z = 0.00 &#956;m
  </text>
  <text x="0.5" y="2.3"
   font-family="Arial" font-size="0.95" fill="black" >
   199 agents
  </text>
 <g id="tissue" 
    transform="translate(0,42.8) scale(1,-1)">
  <g id="ECM">
  </g>
  <g id="cells">
   <g id="cell0">
  <circle cx="20" cy="20" r="0.5" stroke-width="0.5" stroke="black" fill="green"/>
  <circle cx="20" cy="20" r="0.30024" stroke-width="0.5" stroke="black" fill="magenta"/>
   </g>
   <g id="cell1">
  <circle cx="21.4049" cy="20.5257" r="0.5" stroke-width="0.5" stroke="black" fill="green"/>
  <circle cx="21.4049" cy="20.5257" r="0.30024" stroke-width="0.5" stroke="black" fill="magenta"/>
   </g>
   <g id="cell2">
  <circle cx="20.6223" cy="21.3648" r="0.5" stroke-width="0.5" stroke="black" fill="green"/>
  <circle cx="20.6223" cy="21.3648" r="0.30024" stroke-width="0.5" stroke="black" fill="magenta"/>
   </g>
   <g id="cell3">
  <circle cx="19.4755" cy="21.4053" r="0.5" stroke-width="0.5" stroke="black" fill="green"/>
  <circle cx="19.4755" cy="21.4053" r="0.30024" stroke-width="0.5" stroke="black" fill="magenta"/>
   </g>
   <g id="cell4">
  <circle cx="18.6357" cy="20.6233" r="0.5" stroke-width="0.5" stroke="black" fill="green"/>
  <circle cx="18.6357" cy="20.6233" r="0.30024" stroke-width="0.5" stroke="black" fill="magenta"/>
   </g>
   <g id="cell5">
  <circle cx="18.5943" cy="19.4766" r="0.5" stroke-width="0.5" stroke="black" fill="green"/>
  <circle cx="18.5943" cy="19.4766" r="0.30024" stroke-width="0.5" stroke="black" fill="magenta"/>
   </g>
   <g id="cell6">
  <circle cx="19.3756" cy="18.6361" r="0.5" stroke-width="0.5" stroke="black" fill="green"/>
  <circle cx="19.3756" cy="18.6361" r="0.30024" stroke-width="0.5" stroke="black" fill="magenta"/>
   </g>
   <g id="cell7">
  <circle cx="20.5223" cy="18.5939" r="0.5" stroke-width="0.5" stroke="black" fill="green"/>
  <circle cx="20.5223" cy="18.5939" r="0.30024" stroke-width="0.5" stroke="black" fill="magenta"/>
   </g>
   <g id="cell8">
  <circle cx="21.3634" cy="19.3745" r="0.5" stroke-width="0.5" stroke="black" fill="green"/>
  <circle cx="21.3634" cy="19.3745" r="0.30024" stroke-width="0.5" stroke="black" fill="magenta"/>
   </g>
   <g id="cell9">
  <circle cx="20.5132" cy="17.3492" r="0.5" stroke-width="0.5" stroke="black" fill="green"/>
  <circle cx="20.5132" cy="17.3492" r="0.30024" stroke-width="0.5" stroke="black" fill="magenta"/>
   </g>
   <g id="cell10">
  <circle cx="21.9727" cy="18.1565" r="0.5" stroke-width="0.5" stroke="black" fill="green"/>
  <circle cx="21.9727" cy="18.1565" r="0.30024" stroke-width="0.5" stroke="black" fill="magenta"/>
   </g>
   <g id="cell11">
  <circle cx="22.6794" cy="19.6673" r="0.5" stroke-width="0.5" stroke="black" fill="green"/>
  <circle cx="22.6794" cy="19.6673" r="0.30024" stroke-width="0.5" stroke="black" fill="magenta"/>
   </g>
   <g id="cell12">
  <circle cx="22.3637" cy="21.305" r="0.5" stroke-width="0.5" stroke="black" fill="green"/>
  <circle cx="22.3637" cy="21.305" r="0.30024" stroke-width="0.5" stroke="black" fill="magenta"/>
   </g>
   <g id="cell13">
  <circle cx="21.146" cy="22.4447" r="0.5" stroke-width="0.5" stroke="black" fill="green"/>
  <circle cx="21.146" cy="22.4447" r="0.30024" stroke-width="0.5" stroke="black" fill="magenta"/>
   </g>
   <g id="cell14">
  <circle cx="19.491" cy="22.6516" r="0.5" stroke-width="0.5" stroke="black" fill="green"/>
  <circle cx="19.491" cy="22.6516" r="0.30024" stroke-width="0.5" stroke="black" fill="magenta"/>
   </g>
   <g id="cell15">
  <circle cx="18.0302" cy="21.8466" r="0.5" stroke-width="0.5" stroke="black" fill="green"/>
  <circle cx="18.0302" cy="21.8466" r="0.30024" stroke-width="0.5" stroke="black" fill="magenta"/>
   </g>
   <g id="cell16">
  <circle cx="17.3211" cy="20.337" r="0.5" stroke-width="0.5" stroke="black" fill="green"/>
  <circle cx="17.3211" cy="20.337" r="0.30024" stroke-width="0.5" stroke="black" fill="magenta"/>
   </g>
   <g id="cell17">
  <circle cx="17.6342" cy="18.6988" r="0.5" stroke-width="0.5" stroke="black" fill="green"/>
  <circle cx="17.6342" cy="18.6988" r="0.30024" stroke-width="0.5" stroke="black" fill="magenta"/>
   </g>
   <g id="cell18">
  <circle cx="18.8501" cy="17.5571" r="0.5" stroke-width="0.5" stroke="black" fill="green"/>
  <circle cx="18.8501" cy="17.5571" r="0.30024" stroke-width="0.5" stroke="black" fill="magenta"/>
   </g>
   <g id="cell19">
  <circle cx="18.8788" cy="16.2646" r="0.5" stroke-width="0.5" stroke="black" fill="green"/>
  <circle cx="18.8788" cy="16.2646" r="0.30024" stroke-width="0.5" stroke="black" fill="magenta"/>
   </g>
   <g id="cell20">
  <circle cx="20.8957" cy="16.2043" r="0.5" stroke-width="0.5" stroke="black" fill="green"/>
  <circle cx="20.8957" cy="16.2043" r="0.30024" stroke-width="0.5" stroke="black" fill="magenta"/>
   </g>
   <g id="cell21">
  <circle cx="22.6728" cy="17.1599" r="0.5" stroke-width="0.5" stroke="black" fill="green"/>
  <circle cx="22.6728" cy="17.1599" r="0.30024" stroke-width="0.5" stroke="black" fill="magenta"/>
   </g>
   <g id="cell22">
  <circle cx="23.7345" cy="18.8759" r="0.5" stroke-width="0.5" stroke="black" fill="green"/>
  <circle cx="23.7345" cy="18.8759" r="0.30024" stroke-width="0.5" stroke="black" fill="magenta"/>
   </g>
   <g id="cell23">
  <circle cx="23.7965" cy="20.8927" r="0.5" stroke-width="0.5" stroke="black" fill="green"/>
  <circle cx="23.7965" cy="20.8927" r="0.30024" stroke-width="0.5" stroke="black" fill="magenta"/>
   </g>
   <g id="cell24">
  <circle cx="22.8422" cy="22.6706" r="0.5" stroke-width="0.5" stroke="black" fill="green"/>
  <circle cx="22.8422" cy="22.6706" r="0.30024" stroke-width="0.5" stroke="black" fill="magenta"/>
   </g>
   <g id="cell25">
  <circle cx="21.1271" cy="23.7336" r="0.5" stroke-width="0.5" stroke="black" fill="green"/>
  <circle cx="21.1271" cy="23.7336" r="0.30024" stroke-width="0.5" stroke="black" fill="magenta"/>
   </g>
   <g id="cell26">
  <circle cx="19.1103" cy="23.7972" r="0.5" stroke-width="0.5" stroke="black" fill="green"/>
  <circle cx="19.1103" cy="23.7972" r="0.30024" stroke-width="0.5" stroke="black" fill="magenta"/>
   </g>
   <g id="cell27">
  <circle cx="17.3317" cy="22.8443" r="0.5" stroke-width="0.5" stroke="black" fill="green"/>
  <circle cx="17.3317" cy="22.8443" r="0.30024" stroke-width="0.5" stroke="black" fill="magenta"/>
   </g>
   <g id="cell28">
  <circle cx="16.2673" cy="21.1301" r="0.5" stroke-width="0.5" stroke="black" fill="green"/>
  <circle cx="16.2673" cy="21.1301" r="0.30024" stroke-width="0.5" stroke="black" fill="magenta"/>
   </g>
   <g id="cell29">
  <circle cx="16.2021" cy="19.1134" r="0.5" stroke-width="0.5" stroke="black" fill="green"/>
  <circle cx="16.2021" cy="19.1134" r="0.30024" stroke-width="0.5" stroke="black" fill="magenta"/>
   </g>
   <g id="cell30">
  <circle cx="17.1536" cy="17.334" r="0.5" stroke-width="0.5" stroke="black" fill="green"/>
  <circle cx="17.1536" cy="17.334" r="0.30024" stroke-width="0.5" stroke="black" fill="magenta"/>
   </g>
   <g id="cell31">
  <circle cx="16.5993" cy="16.1993" r="0.5" stroke-width="0.5" stroke="black" fill="green"/>
  <circle cx="16.5993" cy="16.1993" r="0.30024" stroke-width="0.5" stroke="black" fill="magenta"/>
   </g>
   <g id="cell32">
  <circle cx="18.584" cy="15.1005" r="0.5" stroke-width="0.5" stroke="black" fill="green"/>
  <circle cx="18.584" cy="15.1005" r="0.30024" stroke-width="0.5" stroke="black" fill="magenta"/>
   </g>
   <g id="cell33">
  <circle cx="20.8489" cy="14.9712" r="0.5" stroke-width="0.5" stroke="black" fill="green"/>
  <circle cx="20.8489" cy="14.9712" r="0.30024" stroke-width="0.5" stroke="black" fill="magenta"/>
   </g>
   <g id="cell34">
  <circle cx="22.9458" cy="15.8368" r="0.5" stroke-width="0.5" stroke="black" fill="green"/>
  <circle cx="22.9458" cy="15.8368" r="0.30024" stroke-width="0.5" stroke="black" fill="magenta"/>
   </g>
   <g id="cell35">
  <circle cx="24.4599" cy="17.5263" r="0.5" stroke-width="0.5" stroke="black" fill="green"/>
  <circle cx="24.4599" cy="17.5263" r="0.30024" stroke-width="0.5" stroke="black" fill="magenta"/>
   </g>
   <g id="cell36">
  <circle cx="25.0915" cy="19.7051" r="0.5" stroke-width="0.5" stroke="black" fill="green"/>
  <circle cx="25.0915" cy="19.7051" r="0.30024" stroke-width="0.5" stroke="black" fill="magenta"/>
   </g>
   <g id="cell37">
  <circle cx="24.7156" cy="21.9424" r="0.5" stroke-width="0.5" stroke="black" fill="green"/>
  <circle cx="24.7156" cy="21.9424" r="0.30024" stroke-width="0.5" stroke="black" fill="magenta"/>
   </g>
   <g id="cell38">
  <circle cx="23.4067" cy="23.7953" r="0.5" stroke-width="0.5" stroke="black" fill="green"/>
  <circle cx="23.4067" cy="23.7953" r="0.30024" stroke-width="0.5" stroke="black" fill="magenta"/>
   </g>
   <g id="cell39">
  <circle cx="21.4238" cy="24.8972" r="0.5" stroke-width="0.5" stroke="black" fill="green"/>
  <circle cx="21.4238" cy="24.8972" r="0.30024" stroke-width="0.5" stroke="black" fill="magenta"/>
   </g>
   <g id="cell40">
  <circle cx="19.1591" cy="25.0302" r="0.5" stroke-width="0.5" stroke="black" fill="green"/>
  <circle cx="19.1591" cy="25.0302" r="0.30024" stroke-width="0.5" stroke="black" fill="magenta"/>
   </g>
   <g id="cell41">
  <circle cx="17.0608" cy="24.1679" r="0.5" stroke-width="0.5" stroke="black" fill="green"/>
  <circle cx="17.0608" cy="24.1679" r="0.30024" stroke-width="0.5" stroke="black" fill="magenta"/>
   </g>
   <g id="cell42">
  <circle cx="15.5441" cy="22.4808" r="0.5" stroke-width="0.5" stroke="black" fill="green"/>
  <circle cx="15.5441" cy="22.4808" r="0.30024" stroke-width="0.5" stroke="black" fill="magenta"/>
   </g>
   <g id="cell43">
  <circle cx="14.909" cy="20.303" r="0.5" stroke-width="0.5" stroke="black" fill="green"/>
  <circle cx="14.909" cy="20.303" r="0.30024" stroke-width="0.5" stroke="black" fill="magenta"/>
   </g>
   <g id="cell44">
  <circle cx="15.2813" cy="18.0651" r="0.5" stroke-width="0.5" stroke="black" fill="green"/>
  <circle cx="15.2813" cy="18.0651" r="0.30024" stroke-width="0.5" stroke="black" fill="magenta"/>
   </g>
   <g id="cell45">
  <circle cx="25.9611" cy="17.9615" r="0.5" stroke-width="0.5" stroke="black" fill="green"/>
  <circle cx="25.9611" cy="17.9615" r="0.30024" stroke-width="0.5" stroke="black" fill="magenta"/>
   </g>
   <g id="cell46">
  <circle cx="26.2875" cy="20.3966" r="0.5" stroke-width="0.5" stroke="black" fill="green"/>
  <circle cx="26.2875" cy="20.3966" r="0.30024" stroke-width="0.5" stroke="black" fill="magenta"/>
   </g>
   <g id="cell47">
  <circle cx="25.6577" cy="22.7714" r="0.5" stroke-width="0.5" stroke="black" fill="green"/>
  <circle cx="25.6577" cy="22.7714" r="0.30024" stroke-width="0.5" stroke="black" fill="magenta"/>
   </g>
   <g id="cell48">
  <circle cx="24.1674" cy="24.7247" r="0.5" stroke-width="0.5" stroke="black" fill="green"/>
  <circle cx="24.1674" cy="24.7247" r="0.30024" stroke-width="0.5" stroke="black" fill="magenta"/>
   </g>
   <g id="cell49">
  <circle cx="22.0432" cy="25.9595" r="0.5" stroke-width="0.5" stroke="black" fill="green"/>
  <circle cx="22.0432" cy="25.9595" r="0.30024" stroke-width="0.5" stroke="black" fill="magenta"/>
   </g>
   <g id="cell50">
  <circle cx="19.6084" cy="26.2878" r="0.5" stroke-width="0.5" stroke="black" fill="green"/>
  <circle cx="19.6084" cy="26.2878" r="0.30024" stroke-width="0.5" stroke="black" fill="magenta"/>
   </g>
   <g id="cell51">
  <circle cx="17.2331" cy="25.6599" r="0.5" stroke-width="0.5" stroke="black" fill="green"/>
  <circle cx="17.2331" cy="25.6599" r="0.30024" stroke-width="0.5" stroke="black" fill="magenta"/>
   </g>
   <g id="cell52">
  <circle cx="15.2786" cy="24.1711" r="0.5" stroke-width="0.5" stroke="black" fill="green"/>
  <circle cx="15.2786" cy="24.1711" r="0.30024" stroke-width="0.5" stroke="black" fill="magenta"/>
   </g>
   <g id="cell53">
  <circle cx="14.0422" cy="22.048" r="0.5" stroke-width="0.5" stroke="black" fill="green"/>
  <circle cx="14.0422" cy="22.048" r="0.30024" stroke-width="0.5" stroke="black" fill="magenta"/>
   </g>
   <g id="cell54">
  <circle cx="13.7119" cy="19.6134" r="0.5" stroke-width="0.5" stroke="black" fill="green"/>
  <circle cx="13.7119" cy="19.6134" r="0.30024" stroke-width="0.5" stroke="black" fill="magenta"/>
   </g>
   <g id="cell55">
  <circle cx="14.3379" cy="17.2376" r="0.5" stroke-width="0.5" stroke="black" fill="green"/>
  <circle cx="14.3379" cy="17.2376" r="0.30024" stroke-width="0.5" stroke="black" fill="magenta"/>
   </g>
   <g id="cell56">
  <circle cx="15.8251" cy="15.2819" r="0.5" stroke-width="0.5" stroke="black" fill="green"/>
  <circle cx="15.8251" cy="15.2819" r="0.30024" stroke-width="0.5" stroke="black" fill="magenta"/>
   </g>
   <g id="cell57">
  <circle cx="17.9473" cy="14.0438" r="0.5" stroke-width="0.5" stroke="black" fill="green"/>
  <circle cx="17.9473" cy="14.0438" r="0.30024" stroke-width="0.5" stroke="black" fill="magenta"/>
   </g>
   <g id="cell58">
  <circle cx="20.3816" cy="13.7116" r="0.5" stroke-width="0.5" stroke="black" fill="green"/>
  <circle cx="20.3816" cy="13.7116" r="0.30024" stroke-width="0.5" stroke="black" fill="magenta"/>
   </g>
   <g id="cell59">
  <circle cx="22.7579" cy="14.3357" r="0.5" stroke-width="0.5" stroke="black" fill="green"/>
  <circle cx="22.7579" cy="14.3357" r="0.30024" stroke-width="0.5" stroke="black" fill="magenta"/>
   </g>
   <g id="cell60">
  <circle cx="24.7148" cy="15.8214" r="0.5" stroke-width="0.5" stroke="black" fill="green"/>
  <circle cx="24.7148" cy="15.8214" r="0.30024" stroke-width="0.5" stroke="black" fill="magenta"/>
   </g>
   <g id="cell61">
  <circle cx="13.7572" cy="15.8434" r="0.5" stroke-width="0.5" stroke="black" fill="green"/>
  <circle cx="13.7572" cy="15.8434" r="0.30024" stroke-width="0.5" stroke="black" fill="magenta"/>
   </g>
   <g id="cell62">
  <circle cx="15.5542" cy="13.9597" r="0.5" stroke-width="0.5" stroke="black" fill="green"/>
  <circle cx="15.5542" cy="13.9597" r="0.30024" stroke-width="0.5" stroke="black" fill="magenta"/>
   </g>
   <g id="cell63">
  <circle cx="17.887" cy="12.8038" r="0.5" stroke-width="0.5" stroke="black" fill="green"/>
  <circle cx="17.887" cy="12.8038" r="0.30024" stroke-width="0.5" stroke="black" fill="magenta"/>
   </g>
   <g id="cell64">
  <circle cx="20.4743" cy="12.515" r="0.5" stroke-width="0.5" stroke="black" fill="green"/>
  <circle cx="20.4743" cy="12.515" r="0.30024" stroke-width="0.5" stroke="black" fill="magenta"/>
   </g>
   <g id="cell65">
  <circle cx="23.0045" cy="13.1281" r="0.5" stroke-width="0.5" stroke="black" fill="green"/>
  <circle cx="23.0045" cy="13.1281" r="0.30024" stroke-width="0.5" stroke="black" fill="magenta"/>
   </g>
   <g id="cell66">
  <circle cx="25.1727" cy="14.5692" r="0.5" stroke-width="0.5" stroke="black" fill="green"/>
  <circle cx="25.1727" cy="14.5692" r="0.30024" stroke-width="0.5" stroke="black" fill="magenta"/>
   </g>
   <g id="cell67">
  <circle cx="26.7176" cy="16.6647" r="0.5" stroke-width="0.5" stroke="black" fill="green"/>
  <circle cx="26.7176" cy="16.6647" r="0.30024" stroke-width="0.5" stroke="black" fill="magenta"/>
   </g>
   <g id="cell68">
  <circle cx="27.453" cy="19.1621" r="0.5" stroke-width="0.5" stroke="black" fill="green"/>
  <circle cx="27.453" cy="19.1621" r="0.30024" stroke-width="0.5" stroke="black" fill="magenta"/>
   </g>
   <g id="cell69">
  <circle cx="27.2905" cy="21.7604" r="0.5" stroke-width="0.5" stroke="black" fill="green"/>
  <circle cx="27.2905" cy="21.7604" r="0.30024" stroke-width="0.5" stroke="black" fill="magenta"/>
   </g>
   <g id="cell70">
  <circle cx="26.2494" cy="24.1466" r="0.5" stroke-width="0.5" stroke="black" fill="green"/>
  <circle cx="26.2494" cy="24.1466" r="0.30024" stroke-width="0.5" stroke="black" fill="magenta"/>
   </g>
   <g id="cell71">
  <circle cx="24.4554" cy="26.0332" r="0.5" stroke-width="0.5" stroke="black" fill="green"/>
  <circle cx="24.4554" cy="26.0332" r="0.30024" stroke-width="0.5" stroke="black" fill="magenta"/>
   </g>
   <g id="cell72">
  <circle cx="22.1245" cy="27.1928" r="0.5" stroke-width="0.5" stroke="black" fill="green"/>
  <circle cx="22.1245" cy="27.1928" r="0.30024" stroke-width="0.5" stroke="black" fill="magenta"/>
   </g>
   <g id="cell73">
  <circle cx="19.5376" cy="27.4857" r="0.5" stroke-width="0.5" stroke="black" fill="green"/>
  <circle cx="19.5376" cy="27.4857" r="0.30024" stroke-width="0.5" stroke="black" fill="magenta"/>
   </g>
   <g id="cell74">
  <circle cx="17.0064" cy="26.8767" r="0.5" stroke-width="0.5" stroke="black" fill="green"/>
  <circle cx="17.0064" cy="26.8767" r="0.30024" stroke-width="0.5" stroke="black" fill="magenta"/>
   </g>
   <g id="cell75">
  <circle cx="14.836" cy="25.439" r="0.5" stroke-width="0.5" stroke="black" fill="green"/>
  <circle cx="14.836" cy="25.439" r="0.30024" stroke-width="0.5" stroke="black" fill="magenta"/>
   </g>
   <g id="cell76">
  <circle cx="13.2877" cy="23.346" r="0.5" stroke-width="0.5" stroke="black" fill="green"/>
  <circle cx="13.2877" cy="23.346" r="0.30024" stroke-width="0.5" stroke="black" fill="magenta"/>
   </g>
   <g id="cell77">
  <circle cx="12.5483" cy="20.8498" r="0.5" stroke-width="0.5" stroke="black" fill="green"/>
  <circle cx="12.5483" cy="20.8498" r="0.30024" stroke-width="0.5" stroke="black" fill="magenta"/>
   </g>
   <g id="cell78">
  <circle cx="12.7067" cy="18.2512" r="0.5" stroke-width="0.5" stroke="black" fill="green"/>
  <circle cx="12.7067" cy="18.2512" r="0.30024" stroke-width="0.5" stroke="black" fill="magenta"/>
   </g>
   <g id="cell79">
  <circle cx="11.5144" cy="18.0803" r="0.5" stroke-width="0.5" stroke="black" fill="green"/>
  <circle cx="11.5144" cy="18.0803" r="0.30024" stroke-width="0.5" stroke="black" fill="magenta"/>
   </g>
   <g id="cell80">
  <circle cx="12.5223" cy="15.5533" r="0.5" stroke-width="0.5" stroke="black" fill="green"/>
  <circle cx="12.5223" cy="15.5533" r="0.30024" stroke-width="0.5" stroke="black" fill="magenta"/>
   </g>
   <g id="cell81">
  <circle cx="14.2613" cy="13.4611" r="0.5" stroke-width="0.5" stroke="black" fill="green"/>
  <circle cx="14.2613" cy="13.4611" r="0.30024" stroke-width="0.5" stroke="black" fill="magenta"/>
   </g>
   <g id="cell82">
  <circle cx="16.5616" cy="12.0083" r="0.5" stroke-width="0.5" stroke="black" fill="green"/>
  <circle cx="16.5616" cy="12.0083" r="0.30024" stroke-width="0.5" stroke="black" fill="magenta"/>
   </g>
   <g id="cell83">
  <circle cx="19.1981" cy="11.337" r="0.5" stroke-width="0.5" stroke="black" fill="green"/>
  <circle cx="19.1981" cy="11.337" r="0.30024" stroke-width="0.5" stroke="black" fill="magenta"/>
   </g>
   <g id="cell84">
  <circle cx="21.913" cy="11.5129" r="0.5" stroke-width="0.5" stroke="black" fill="green"/>
  <circle cx="21.913" cy="11.5129" r="0.30024" stroke-width="0.5" stroke="black" fill="magenta"/>
   </g>
   <g id="cell85">
  <circle cx="24.4408" cy="12.5187" r="0.5" stroke-width="0.5" stroke="black" fill="green"/>
  <circle cx="24.4408" cy="12.5187" r="0.30024" stroke-width="0.5" stroke="black" fill="magenta"/>
   </g>
   <g id="cell86">
  <circle cx="26.5344" cy="14.2561" r="0.5" stroke-width="0.5" stroke="black" fill="green"/>
  <circle cx="26.5344" cy="14.2561" r="0.30024" stroke-width="0.5" stroke="black" fill="magenta"/>
   </g>
   <g id="cell87">
  <circle cx="27.989" cy="16.5552" r="0.5" stroke-width="0.5" stroke="black" fill="green"/>
  <circle cx="27.989" cy="16.5552" r="0.30024" stroke-width="0.5" stroke="black" fill="magenta"/>
   </g>
   <g id="cell88">
  <circle cx="28.6623" cy="19.1912" r="0.5" stroke-width="0.5" stroke="black" fill="green"/>
  <circle cx="28.6623" cy="19.1912" r="0.30024" stroke-width="0.5" stroke="black" fill="magenta"/>
   </g>
   <g id="cell89">
  <circle cx="28.4886" cy="21.9062" r="0.5" stroke-width="0.5" stroke="black" fill="green"/>
  <circle cx="28.4886" cy="21.9062" r="0.30024" stroke-width="0.5" stroke="black" fill="magenta"/>
   </g>
   <g id="cell90">
  <circle cx="27.4848" cy="24.4348" r="0.5" stroke-width="0.5" stroke="black" fill="green"/>
  <circle cx="27.4848" cy="24.4348" r="0.30024" stroke-width="0.5" stroke="black" fill="magenta"/>
   </g>
   <g id="cell91">
  <circle cx="25.7491" cy="26.5298" r="0.5" stroke-width="0.5" stroke="black" fill="green"/>
  <circle cx="25.7491" cy="26.5298" r="0.30024" stroke-width="0.5" stroke="black" fill="magenta"/>
   </g>
   <g id="cell92">
  <circle cx="23.4511" cy="27.9862" r="0.5" stroke-width="0.5" stroke="black" fill="green"/>
  <circle cx="23.4511" cy="27.9862" r="0.30024" stroke-width="0.5" stroke="black" fill="magenta"/>
   </g>
   <g id="cell93">
  <circle cx="20.8157" cy="28.6617" r="0.5" stroke-width="0.5" stroke="black" fill="green"/>
  <circle cx="20.8157" cy="28.6617" r="0.30024" stroke-width="0.5" stroke="black" fill="magenta"/>
   </g>
   <g id="cell94">
  <circle cx="18.1006" cy="28.4901" r="0.5" stroke-width="0.5" stroke="black" fill="green"/>
  <circle cx="18.1006" cy="28.4901" r="0.30024" stroke-width="0.5" stroke="black" fill="magenta"/>
   </g>
   <g id="cell95">
  <circle cx="15.5711" cy="27.4883" r="0.5" stroke-width="0.5" stroke="black" fill="green"/>
  <circle cx="15.5711" cy="27.4883" r="0.30024" stroke-width="0.5" stroke="black" fill="magenta"/>
   </g>
   <g id="cell96">
  <circle cx="13.4748" cy="25.7543" r="0.5" stroke-width="0.5" stroke="black" fill="green"/>
  <circle cx="13.4748" cy="25.7543" r="0.30024" stroke-width="0.5" stroke="black" fill="magenta"/>
   </g>
   <g id="cell97">
  <circle cx="12.0165" cy="23.4575" r="0.5" stroke-width="0.5" stroke="black" fill="green"/>
  <circle cx="12.0165" cy="23.4575" r="0.30024" stroke-width="0.5" stroke="black" fill="magenta"/>
   </g>
   <g id="cell98">
  <circle cx="11.339" cy="20.8226" r="0.5" stroke-width="0.5" stroke="black" fill="green"/>
  <circle cx="11.339" cy="20.8226" r="0.30024" stroke-width="0.5" stroke="black" fill="magenta"/>
   </g>
   <g id="cell99">
  <circle cx="11.8713" cy="25.6511" r="0.5" stroke-width="0.5" stroke="black" fill="green"/>
  <circle cx="11.8713" cy="25.6511" r="0.30024" stroke-width="0.5" stroke="black" fill="magenta"/>
   </g>
   <g id="cell100">
  <circle cx="10.609" cy="23.1334" r="0.5" stroke-width="0.5" stroke="black" fill="green"/>
  <circle cx="10.609" cy="23.1334" r="0.30024" stroke-width="0.5" stroke="black" fill="magenta"/>
   </g>
   <g id="cell101">
  <circle cx="10.1066" cy="20.3622" r="0.5" stroke-width="0.5" stroke="black" fill="green"/>
  <circle cx="10.1066" cy="20.3622" r="0.30024" stroke-width="0.5" stroke="black" fill="magenta"/>
   </g>
   <g id="cell102">
  <circle cx="10.405" cy="17.5616" r="0.5" stroke-width="0.5" stroke="black" fill="green"/>
  <circle cx="10.405" cy="17.5616" r="0.30024" stroke-width="0.5" stroke="black" fill="magenta"/>
   </g>
   <g id="cell103">
  <circle cx="11.4799" cy="14.9584" r="0.5" stroke-width="0.5" stroke="black" fill="green"/>
  <circle cx="11.4799" cy="14.9584" r="0.30024" stroke-width="0.5" stroke="black" fill="magenta"/>
   </g>
   <g id="cell104">
  <circle cx="13.2444" cy="12.7632" r="0.5" stroke-width="0.5" stroke="black" fill="green"/>
  <circle cx="13.2444" cy="12.7632" r="0.30024" stroke-width="0.5" stroke="black" fill="magenta"/>
   </g>
   <g id="cell105">
  <circle cx="15.5556" cy="11.1537" r="0.5" stroke-width="0.5" stroke="black" fill="green"/>
  <circle cx="15.5556" cy="11.1537" r="0.30024" stroke-width="0.5" stroke="black" fill="magenta"/>
   </g>
   <g id="cell106">
  <circle cx="18.2265" cy="10.2602" r="0.5" stroke-width="0.5" stroke="black" fill="green"/>
  <circle cx="18.2265" cy="10.2602" r="0.30024" stroke-width="0.5" stroke="black" fill="magenta"/>
   </g>
   <g id="cell107">
  <circle cx="21.0409" cy="10.1549" r="0.5" stroke-width="0.5" stroke="black" fill="green"/>
  <circle cx="21.0409" cy="10.1549" r="0.30024" stroke-width="0.5" stroke="black" fill="magenta"/>
   </g>
   <g id="cell108">
  <circle cx="23.7711" cy="10.8464" r="0.5" stroke-width="0.5" stroke="black" fill="green"/>
  <circle cx="23.7711" cy="10.8464" r="0.30024" stroke-width="0.5" stroke="black" fill="magenta"/>
   </g>
   <g id="cell109">
  <circle cx="26.1961" cy="12.2787" r="0.5" stroke-width="0.5" stroke="black" fill="green"/>
  <circle cx="26.1961" cy="12.2787" r="0.30024" stroke-width="0.5" stroke="black" fill="magenta"/>
   </g>
   <g id="cell110">
  <circle cx="28.1197" cy="14.336" r="0.5" stroke-width="0.5" stroke="black" fill="green"/>
  <circle cx="28.1197" cy="14.336" r="0.30024" stroke-width="0.5" stroke="black" fill="magenta"/>
   </g>
   <g id="cell111">
  <circle cx="29.386" cy="16.8516" r="0.5" stroke-width="0.5" stroke="black" fill="green"/>
  <circle cx="29.386" cy="16.8516" r="0.30024" stroke-width="0.5" stroke="black" fill="magenta"/>
   </g>
   <g id="cell112">
  <circle cx="29.8928" cy="19.6221" r="0.5" stroke-width="0.5" stroke="black" fill="green"/>
  <circle cx="29.8928" cy="19.6221" r="0.30024" stroke-width="0.5" stroke="black" fill="magenta"/>
   </g>
   <g id="cell113">
  <circle cx="29.5989" cy="22.4231" r="0.5" stroke-width="0.5" stroke="black" fill="green"/>
  <circle cx="29.5989" cy="22.4231" r="0.30024" stroke-width="0.5" stroke="black" fill="magenta"/>
   </g>
   <g id="cell114">
  <circle cx="28.5281" cy="25.028" r="0.5" stroke-width="0.5" stroke="black" fill="green"/>
  <circle cx="28.5281" cy="25.028" r="0.30024" stroke-width="0.5" stroke="black" fill="magenta"/>
   </g>
   <g id="cell115">
  <circle cx="26.7672" cy="27.226" r="0.5" stroke-width="0.5" stroke="black" fill="green"/>
  <circle cx="26.7672" cy="27.226" r="0.30024" stroke-width="0.5" stroke="black" fill="magenta"/>
   </g>
   <g id="cell116">
  <circle cx="24.4585" cy="28.8392" r="0.5" stroke-width="0.5" stroke="black" fill="green"/>
  <circle cx="24.4585" cy="28.8392" r="0.30024" stroke-width="0.5" stroke="black" fill="magenta"/>
   </g>
   <g id="cell117">
  <circle cx="21.789" cy="29.737" r="0.5" stroke-width="0.5" stroke="black" fill="green"/>
  <circle cx="21.789" cy="29.737" r="0.30024" stroke-width="0.5" stroke="black" fill="magenta"/>
   </g>
   <g id="cell118">
  <circle cx="18.9747" cy="29.8468" r="0.5" stroke-width="0.5" stroke="black" fill="green"/>
  <circle cx="18.9747" cy="29.8468" r="0.30024" stroke-width="0.5" stroke="black" fill="magenta"/>
   </g>
   <g id="cell119">
  <circle cx="16.2435" cy="29.1596" r="0.5" stroke-width="0.5" stroke="black" fill="green"/>
  <circle cx="16.2435" cy="29.1596" r="0.30024" stroke-width="0.5" stroke="black" fill="magenta"/>
   </g>
   <g id="cell120">
  <circle cx="13.8162" cy="27.7311" r="0.5" stroke-width="0.5" stroke="black" fill="green"/>
  <circle cx="13.8162" cy="27.7311" r="0.30024" stroke-width="0.5" stroke="black" fill="magenta"/>
   </g>
   <g id="cell121">
  <circle cx="10.6986" cy="26.0575" r="0.5" stroke-width="0.5" stroke="black" fill="green"/>
  <circle cx="10.6986" cy="26.0575" r="0.30024" stroke-width="0.5" stroke="black" fill="magenta"/>
   </g>
   <g id="cell122">
  <circle cx="9.44816" cy="23.4451" r="0.5" stroke-width="0.5" stroke="black" fill="green"/>
  <circle cx="9.44816" cy="23.4451" r="0.30024" stroke-width="0.5" stroke="black" fill="magenta"/>
   </g>
   <g id="cell123">
  <circle cx="8.91613" cy="20.5981" r="0.5" stroke-width="0.5" stroke="black" fill="green"/>
  <circle cx="8.91613" cy="20.5981" r="0.30024" stroke-width="0.5" stroke="black" fill="magenta"/>
   </g>
   <g id="cell124">
  <circle cx="9.13869" cy="17.7105" r="0.5" stroke-width="0.5" stroke="black" fill="green"/>
  <circle cx="9.13869" cy="17.7105" r="0.30024" stroke-width="0.5" stroke="black" fill="magenta"/>
   </g>
   <g id="cell125">
  <circle cx="10.1007" cy="14.9787" r="0.5" stroke-width="0.5" stroke="black" fill="green"/>
  <circle cx="10.1007" cy="14.9787" r="0.30024" stroke-width="0.5" stroke="black" fill="magenta"/>
   </g>
   <g id="cell126">
  <circle cx="11.7366" cy="12.5888" r="0.5" stroke-width="0.5" stroke="black" fill="green"/>
  <circle cx="11.7366" cy="12.5888" r="0.30024" stroke-width="0.5" stroke="black" fill="magenta"/>
   </g>
   <g id="cell127">
  <circle cx="13.9351" cy="10.7034" r="0.5" stroke-width="0.5" stroke="black" fill="green"/>
  <circle cx="13.9351" cy="10.7034" r="0.30024" stroke-width="0.5" stroke="black" fill="magenta"/>
   </g>
   <g id="cell128">
  <circle cx="16.5465" cy="9.4509" r="0.5" stroke-width="0.5" stroke="black" fill="green"/>
  <circle cx="16.5465" cy="9.4509" r="0.30024" stroke-width="0.5" stroke="black" fill="magenta"/>
   </g>
   <g id="cell129">
  <circle cx="19.393" cy="8.91661" r="0.5" stroke-width="0.5" stroke="black" fill="green"/>
  <circle cx="19.393" cy="8.91661" r="0.30024" stroke-width="0.5" stroke="black" fill="magenta"/>
   </g>
   <g id="cell130">
  <circle cx="22.2809" cy="9.13687" r="0.5" stroke-width="0.5" stroke="black" fill="green"/>
  <circle cx="22.2809" cy="9.13687" r="0.30024" stroke-width="0.5" stroke="black" fill="magenta"/>
   </g>
   <g id="cell131">
  <circle cx="25.0134" cy="10.0967" r="0.5" stroke-width="0.5" stroke="black" fill="green"/>
  <circle cx="25.0134" cy="10.0967" r="0.30024" stroke-width="0.5" stroke="black" fill="magenta"/>
   </g>
   <g id="cell132">
  <circle cx="27.4047" cy="11.7307" r="0.5" stroke-width="0.5" stroke="black" fill="green"/>
  <circle cx="27.4047" cy="11.7307" r="0.30024" stroke-width="0.5" stroke="black" fill="magenta"/>
   </g>
   <g id="cell133">
  <circle cx="29.2918" cy="13.9277" r="0.5" stroke-width="0.5" stroke="black" fill="green"/>
  <circle cx="29.2918" cy="13.9277" r="0.30024" stroke-width="0.5" stroke="black" fill="magenta"/>
   </g>
   <g id="cell134">
  <circle cx="30.5463" cy="16.5381" r="0.5" stroke-width="0.5" stroke="black" fill="green"/>
  <circle cx="30.5463" cy="16.5381" r="0.30024" stroke-width="0.5" stroke="black" fill="magenta"/>
   </g>
   <g id="cell135">
  <circle cx="31.0829" cy="19.3842" r="0.5" stroke-width="0.5" stroke="black" fill="green"/>
  <circle cx="31.0829" cy="19.3842" r="0.30024" stroke-width="0.5" stroke="black" fill="magenta"/>
   </g>
   <g id="cell136">
  <circle cx="30.8649" cy="22.2722" r="0.5" stroke-width="0.5" stroke="black" fill="green"/>
  <circle cx="30.8649" cy="22.2722" r="0.30024" stroke-width="0.5" stroke="black" fill="magenta"/>
   </g>
   <g id="cell137">
  <circle cx="29.9073" cy="25.0055" r="0.5" stroke-width="0.5" stroke="black" fill="green"/>
  <circle cx="29.9073" cy="25.0055" r="0.30024" stroke-width="0.5" stroke="black" fill="magenta"/>
   </g>
   <g id="cell138">
  <circle cx="28.2752" cy="27.3981" r="0.5" stroke-width="0.5" stroke="black" fill="green"/>
  <circle cx="28.2752" cy="27.3981" r="0.30024" stroke-width="0.5" stroke="black" fill="magenta"/>
   </g>
   <g id="cell139">
  <circle cx="26.0797" cy="29.287" r="0.5" stroke-width="0.5" stroke="black" fill="green"/>
  <circle cx="26.0797" cy="29.287" r="0.30024" stroke-width="0.5" stroke="black" fill="magenta"/>
   </g>
   <g id="cell140">
  <circle cx="23.4703" cy="30.5436" r="0.5" stroke-width="0.5" stroke="black" fill="green"/>
  <circle cx="23.4703" cy="30.5436" r="0.30024" stroke-width="0.5" stroke="black" fill="magenta"/>
   </g>
   <g id="cell141">
  <circle cx="20.6246" cy="31.0824" r="0.5" stroke-width="0.5" stroke="black" fill="green"/>
  <circle cx="20.6246" cy="31.0824" r="0.30024" stroke-width="0.5" stroke="black" fill="magenta"/>
   </g>
   <g id="cell142">
  <circle cx="17.7364" cy="30.8668" r="0.5" stroke-width="0.5" stroke="black" fill="green"/>
  <circle cx="17.7364" cy="30.8668" r="0.30024" stroke-width="0.5" stroke="black" fill="magenta"/>
   </g>
   <g id="cell143">
  <circle cx="15.0024" cy="29.9113" r="0.5" stroke-width="0.5" stroke="black" fill="green"/>
  <circle cx="15.0024" cy="29.9113" r="0.30024" stroke-width="0.5" stroke="black" fill="magenta"/>
   </g>
   <g id="cell144">
  <circle cx="12.6085" cy="28.2811" r="0.5" stroke-width="0.5" stroke="black" fill="green"/>
  <circle cx="12.6085" cy="28.2811" r="0.30024" stroke-width="0.5" stroke="black" fill="magenta"/>
   </g>
   <g id="cell145">
  <circle cx="10.0514" cy="12.767" r="0.5" stroke-width="0.5" stroke="black" fill="green"/>
  <circle cx="10.0514" cy="12.767" r="0.30024" stroke-width="0.5" stroke="black" fill="magenta"/>
   </g>
   <g id="cell146">
  <circle cx="12.0703" cy="10.5973" r="0.5" stroke-width="0.5" stroke="black" fill="green"/>
  <circle cx="12.0703" cy="10.5973" r="0.30024" stroke-width="0.5" stroke="black" fill="magenta"/>
   </g>
   <g id="cell147">
  <circle cx="14.5496" cy="8.97353" r="0.5" stroke-width="0.5" stroke="black" fill="green"/>
  <circle cx="14.5496" cy="8.97353" r="0.30024" stroke-width="0.5" stroke="black" fill="magenta"/>
   </g>
   <g id="cell148">
  <circle cx="17.3453" cy="7.9899" r="0.5" stroke-width="0.5" stroke="black" fill="green"/>
  <circle cx="17.3453" cy="7.9899" r="0.30024" stroke-width="0.5" stroke="black" fill="magenta"/>
   </g>
   <g id="cell149">
  <circle cx="20.2951" cy="7.70354" r="0.5" stroke-width="0.5" stroke="black" fill="green"/>
  <circle cx="20.2951" cy="7.70354" r="0.30024" stroke-width="0.5" stroke="black" fill="magenta"/>
   </g>
   <g id="cell150">
  <circle cx="23.2278" cy="8.13109" r="0.5" stroke-width="0.5" stroke="black" fill="green"/>
  <circle cx="23.2278" cy="8.13109" r="0.30024" stroke-width="0.5" stroke="black" fill="magenta"/>
   </g>
   <g id="cell151">
  <circle cx="25.9731" cy="9.24772" r="0.5" stroke-width="0.5" stroke="black" fill="green"/>
  <circle cx="25.9731" cy="9.24772" r="0.30024" stroke-width="0.5" stroke="black" fill="magenta"/>
   </g>
   <g id="cell152">
  <circle cx="28.3717" cy="10.9886" r="0.5" stroke-width="0.5" stroke="black" fill="green"/>
  <circle cx="28.3717" cy="10.9886" r="0.30024" stroke-width="0.5" stroke="black" fill="magenta"/>
   </g>
   <g id="cell153">
  <circle cx="30.2841" cy="13.2527" r="0.5" stroke-width="0.5" stroke="black" fill="green"/>
  <circle cx="30.2841" cy="13.2527" r="0.30024" stroke-width="0.5" stroke="black" fill="magenta"/>
   </g>
   <g id="cell154">
  <circle cx="31.5995" cy="15.9085" r="0.5" stroke-width="0.5" stroke="black" fill="green"/>
  <circle cx="31.5995" cy="15.9085" r="0.30024" stroke-width="0.5" stroke="black" fill="magenta"/>
   </g>
   <g id="cell155">
  <circle cx="32.2415" cy="18.8018" r="0.5" stroke-width="0.5" stroke="black" fill="green"/>
  <circle cx="32.2415" cy="18.8018" r="0.30024" stroke-width="0.5" stroke="black" fill="magenta"/>
   </g>
   <g id="cell156">
  <circle cx="32.1727" cy="21.7647" r="0.5" stroke-width="0.5" stroke="black" fill="green"/>
  <circle cx="32.1727" cy="21.7647" r="0.30024" stroke-width="0.5" stroke="black" fill="magenta"/>
   </g>
   <g id="cell157">
  <circle cx="31.3973" cy="24.6252" r="0.5" stroke-width="0.5" stroke="black" fill="green"/>
  <circle cx="31.3973" cy="24.6252" r="0.30024" stroke-width="0.5" stroke="black" fill="magenta"/>
   </g>
   <g id="cell158">
  <circle cx="29.9601" cy="27.2171" r="0.5" stroke-width="0.5" stroke="black" fill="green"/>
  <circle cx="29.9601" cy="27.2171" r="0.30024" stroke-width="0.5" stroke="black" fill="magenta"/>
   </g>
   <g id="cell159">
  <circle cx="27.9447" cy="29.39" r="0.5" stroke-width="0.5" stroke="black" fill="green"/>
  <circle cx="27.9447" cy="29.39" r="0.30024" stroke-width="0.5" stroke="black" fill="magenta"/>
   </g>
   <g id="cell160">
  <circle cx="25.468" cy="31.0178" r="0.5" stroke-width="0.5" stroke="black" fill="green"/>
  <circle cx="25.468" cy="31.0178" r="0.30024" stroke-width="0.5" stroke="black" fill="magenta"/>
   </g>
   <g id="cell161">
  <circle cx="22.6738" cy="32.0059" r="0.5" stroke-width="0.5" stroke="black" fill="green"/>
  <circle cx="22.6738" cy="32.0059" r="0.30024" stroke-width="0.5" stroke="black" fill="magenta"/>
   </g>
   <g id="cell162">
  <circle cx="19.7244" cy="32.2969" r="0.5" stroke-width="0.5" stroke="black" fill="green"/>
  <circle cx="19.7244" cy="32.2969" r="0.30024" stroke-width="0.5" stroke="black" fill="magenta"/>
   </g>
   <g id="cell163">
  <circle cx="16.7911" cy="31.874" r="0.5" stroke-width="0.5" stroke="black" fill="green"/>
  <circle cx="16.7911" cy="31.874" r="0.30024" stroke-width="0.5" stroke="black" fill="magenta"/>
   </g>
   <g id="cell164">
  <circle cx="14.044" cy="30.7618" r="0.5" stroke-width="0.5" stroke="black" fill="green"/>
  <circle cx="14.044" cy="30.7618" r="0.30024" stroke-width="0.5" stroke="black" fill="magenta"/>
   </g>
   <g id="cell165">
  <circle cx="11.6427" cy="29.0247" r="0.5" stroke-width="0.5" stroke="black" fill="green"/>
  <circle cx="11.6427" cy="29.0247" r="0.30024" stroke-width="0.5" stroke="black" fill="magenta"/>
   </g>
   <g id="cell166">
  <circle cx="9.72662" cy="26.7637" r="0.5" stroke-width="0.5" stroke="black" fill="green"/>
  <circle cx="9.72662" cy="26.7637" r="0.30024" stroke-width="0.5" stroke="black" fill="magenta"/>
   </g>
   <g id="cell167">
  <circle cx="8.40699" cy="24.11" r="0.5" stroke-width="0.5" stroke="black" fill="green"/>
  <circle cx="8.40699" cy="24.11" r="0.30024" stroke-width="0.5" stroke="black" fill="magenta"/>
   </g>
   <g id="cell168">
  <circle cx="7.76042" cy="21.2177" r="0.5" stroke-width="0.5" stroke="black" fill="green"/>
  <circle cx="7.76042" cy="21.2177" r="0.30024" stroke-width="0.5" stroke="black" fill="magenta"/>
   </g>
   <g id="cell169">
  <circle cx="7.82446" cy="18.2547" r="0.5" stroke-width="0.5" stroke="black" fill="green"/>
  <circle cx="7.82446" cy="18.2547" r="0.30024" stroke-width="0.5" stroke="black" fill="magenta"/>
   </g>
   <g id="cell170">
  <circle cx="8.59538" cy="15.393" r="0.5" stroke-width="0.5" stroke="black" fill="green"/>
  <circle cx="8.59538" cy="15.393" r="0.30024" stroke-width="0.5" stroke="black" fill="magenta"/>
   </g>
   <g id="cell171">
  <circle cx="29.9792" cy="10.9079" r="0.5" stroke-width="0.5" stroke="black" fill="green"/>
  <circle cx="29.9792" cy="10.9079" r="0.30024" stroke-width="0.5" stroke="black" fill="magenta"/>
   </g>
   <g id="cell172">
  <circle cx="31.7514" cy="13.3551" r="0.5" stroke-width="0.5" stroke="black" fill="green"/>
  <circle cx="31.7514" cy="13.3551" r="0.30024" stroke-width="0.5" stroke="black" fill="magenta"/>
   </g>
   <g id="cell173">
  <circle cx="32.935" cy="16.1352" r="0.5" stroke-width="0.5" stroke="black" fill="green"/>
  <circle cx="32.935" cy="16.1352" r="0.30024" stroke-width="0.5" stroke="black" fill="magenta"/>
   </g>
   <g id="cell174">
  <circle cx="33.4706" cy="19.1088" r="0.5" stroke-width="0.5" stroke="black" fill="green"/>
  <circle cx="33.4706" cy="19.1088" r="0.30024" stroke-width="0.5" stroke="black" fill="magenta"/>
   </g>
   <g id="cell175">
  <circle cx="33.3314" cy="22.1271" r="0.5" stroke-width="0.5" stroke="black" fill="green"/>
  <circle cx="33.3314" cy="22.1271" r="0.30024" stroke-width="0.5" stroke="black" fill="magenta"/>
   </g>
   <g id="cell176">
  <circle cx="32.5244" cy="25.0389" r="0.5" stroke-width="0.5" stroke="black" fill="green"/>
  <circle cx="32.5244" cy="25.0389" r="0.30024" stroke-width="0.5" stroke="black" fill="magenta"/>
   </g>
   <g id="cell177">
  <circle cx="31.09" cy="27.6982" r="0.5" stroke-width="0.5" stroke="black" fill="green"/>
  <circle cx="31.09" cy="27.6982" r="0.30024" stroke-width="0.5" stroke="black" fill="magenta"/>
   </g>
   <g id="cell178">
  <circle cx="29.1" cy="29.9719" r="0.5" stroke-width="0.5" stroke="black" fill="green"/>
  <circle cx="29.1" cy="29.9719" r="0.30024" stroke-width="0.5" stroke="black" fill="magenta"/>
   </g>
   <g id="cell179">
  <circle cx="26.6542" cy="31.7461" r="0.5" stroke-width="0.5" stroke="black" fill="green"/>
  <circle cx="26.6542" cy="31.7461" r="0.30024" stroke-width="0.5" stroke="black" fill="magenta"/>
   </g>
   <g id="cell180">
  <circle cx="23.8751" cy="32.9319" r="0.5" stroke-width="0.5" stroke="black" fill="green"/>
  <circle cx="23.8751" cy="32.9319" r="0.30024" stroke-width="0.5" stroke="black" fill="magenta"/>
   </g>
   <g id="cell181">
  <circle cx="20.9019" cy="33.4698" r="0.5" stroke-width="0.5" stroke="black" fill="green"/>
  <circle cx="20.9019" cy="33.4698" r="0.30024" stroke-width="0.5" stroke="black" fill="magenta"/>
   </g>
   <g id="cell182">
  <circle cx="17.8835" cy="33.3331" r="0.5" stroke-width="0.5" stroke="black" fill="green"/>
  <circle cx="17.8835" cy="33.3331" r="0.30024" stroke-width="0.5" stroke="black" fill="magenta"/>
   </g>
   <g id="cell183">
  <circle cx="14.9711" cy="32.5284" r="0.5" stroke-width="0.5" stroke="black" fill="green"/>
  <circle cx="14.9711" cy="32.5284" r="0.30024" stroke-width="0.5" stroke="black" fill="magenta"/>
   </g>
   <g id="cell184">
  <circle cx="12.3106" cy="31.0961" r="0.5" stroke-width="0.5" stroke="black" fill="green"/>
  <circle cx="12.3106" cy="31.0961" r="0.30024" stroke-width="0.5" stroke="black" fill="magenta"/>
   </g>
   <g id="cell185">
  <circle cx="10.0353" cy="29.108" r="0.5" stroke-width="0.5" stroke="black" fill="green"/>
  <circle cx="10.0353" cy="29.108" r="0.30024" stroke-width="0.5" stroke="black" fill="magenta"/>
   </g>
   <g id="cell186">
  <circle cx="8.25919" cy="26.6636" r="0.5" stroke-width="0.5" stroke="black" fill="green"/>
  <circle cx="8.25919" cy="26.6636" r="0.30024" stroke-width="0.5" stroke="black" fill="magenta"/>
   </g>
   <g id="cell187">
  <circle cx="7.07121" cy="23.8854" r="0.5" stroke-width="0.5" stroke="black" fill="green"/>
  <circle cx="7.07121" cy="23.8854" r="0.30024" stroke-width="0.5" stroke="black" fill="magenta"/>
   </g>
   <g id="cell188">
  <circle cx="6.53088" cy="20.9126" r="0.5" stroke-width="0.5" stroke="black" fill="green"/>
  <circle cx="6.53088" cy="20.9126" r="0.30024" stroke-width="0.5" stroke="black" fill="magenta"/>
   </g>
   <g id="cell189">
  <circle cx="6.66527" cy="17.8941" r="0.5" stroke-width="0.5" stroke="black" fill="green"/>
  <circle cx="6.66527" cy="17.8941" r="0.30024" stroke-width="0.5" stroke="black" fill="magenta"/>
   </g>
   <g id="cell190">
  <circle cx="7.46763" cy="14.9811" r="0.5" stroke-width="0.5" stroke="black" fill="green"/>
  <circle cx="7.46763" cy="14.9811" r="0.30024" stroke-width="0.5" stroke="black" fill="magenta"/>
   </g>
   <g id="cell191">
  <circle cx="8.89779" cy="12.3194" r="0.5" stroke-width="0.5" stroke="black" fill="green"/>
  <circle cx="8.89779" cy="12.3194" r="0.30024" stroke-width="0.5" stroke="black" fill="magenta"/>
   </g>
   <g id="cell192">
  <circle cx="10.8841" cy="10.0426" r="0.5" stroke-width="0.5" stroke="black" fill="green"/>
  <circle cx="10.8841" cy="10.0426" r="0.30024" stroke-width="0.5" stroke="black" fill="magenta"/>
   </g>
   <g id="cell193">
  <circle cx="13.3271" cy="8.2645" r="0.5" stroke-width="0.5" stroke="black" fill="green"/>
  <circle cx="13.3271" cy="8.2645" r="0.30024" stroke-width="0.5" stroke="black" fill="magenta"/>
   </g>
   <g id="cell194">
  <circle cx="16.1043" cy="7.07431" r="0.5" stroke-width="0.5" stroke="black" fill="green"/>
  <circle cx="16.1043" cy="7.07431" r="0.30024" stroke-width="0.5" stroke="black" fill="magenta"/>
   </g>
   <g id="cell195">
  <circle cx="19.0767" cy="6.53161" r="0.5" stroke-width="0.5" stroke="black" fill="green"/>
  <circle cx="19.0767" cy="6.53161" r="0.30024" stroke-width="0.5" stroke="black" fill="magenta"/>
   </g>
   <g id="cell196">
  <circle cx="22.0953" cy="6.66359" r="0.5" stroke-width="0.5" stroke="black" fill="green"/>
  <circle cx="22.0953" cy="6.66359" r="0.30024" stroke-width="0.5" stroke="black" fill="magenta"/>
   </g>
   <g id="cell197">
  <circle cx="25.009" cy="7.46364" r="0.5" stroke-width="0.5" stroke="black" fill="green"/>
  <circle cx="25.009" cy="7.46364" r="0.30024" stroke-width="0.5" stroke="black" fill="magenta"/>
   </g>
   <g id="cell198">
  <circle cx="27.6717" cy="8.89168" r="0.5" stroke-width="0.5" stroke="black" fill="green"/>
  <circle cx="27.6717" cy="8.89168" r="0.30024" stroke-width="0.5" stroke="black" fill="magenta"/>
   </g>
  </g>
 </g>
  <rect x="-161" y="41.4" width="200" height="0.4" stroke-width="0.08" stroke="rgb(255,255,255)" fill="rgb(0,0,0)"/>
  <text x="-160.75" y="41.15"
   font-family="Arial" font-size="1" fill="black" >
   200 &#956;m
  </text>
  <text x="1" y="41.8"
   font-family="Arial" font-size="0.75" fill="black" >
   0 days, 0 hours, 0 minutes, and 10.2807 seconds
  </text>
  <rect x="0" y="2.8" width="40" height="40" stroke-width="0.08" stroke="rgb(0,0,0)" fill="none"/>
</svg>
