<?xml version="1.0" encoding="UTF-8" standalone="no"?>
<!-- Created with PhysiCell (http://PhysiCell.MathCancer.org/) -->
<svg 
 xmlns:dc="http://purl.org/dc/elements/1.1/" 
 xmlns:cc="http://creativecommons.org/ns#" 
 xmlns:rdf="http://www.w3.org/1999/02/22-rdf-syntax-ns#" 
 xmlns:svg="http://www.w3.org/2000/svg" 
 xmlns="http://www.w3.org/2000/svg" 
 version="1.1" 
 width="1000" 
 height="1070" 
 id="svg2">
  <rect x="0" y="0" width="1000" height="1070" stroke-width="2" stroke="white" fill="white"/>
  <text x="12.5" y="30"
   font-family="Arial" font-size="25" fill="black" >
   Current time: 0 days, 18 hours, and 30.00 minutes, z = 0.00 &#956;m
  </text>
  <text x="12.5" y="57.5"
   font-family="Arial" font-size="23.75" fill="black" >
   251 agents
  </text>
 <g id="tissue" 
    transform="translate(0,1070) scale(1,-1)">
  <g id="ECM">
  </g>
  <g id="cells">
   <g id="cell0">
  <circle cx="0" cy="0" r="20" stroke-width="0.5" stroke="red" fill="red"/>
  <circle cx="0" cy="0" r="12.0096" stroke-width="0.5" stroke="black" fill="magenta"/>
   </g>
   <g id="cell1">
  <circle cx="0" cy="0" r="20" stroke-width="0.5" stroke="red" fill="red"/>
  <circle cx="0" cy="0" r="12.0096" stroke-width="0.5" stroke="black" fill="magenta"/>
   </g>
   <g id="cell2">
  <circle cx="0" cy="0" r="20" stroke-width="0.5" stroke="red" fill="red"/>
  <circle cx="0" cy="0" r="12.0096" stroke-width="0.5" stroke="black" fill="magenta"/>
   </g>
   <g id="cell3">
  <circle cx="0" cy="0" r="20" stroke-width="0.5" stroke="red" fill="red"/>
  <circle cx="0" cy="0" r="12.0096" stroke-width="0.5" stroke="black" fill="magenta"/>
   </g>
   <g id="cell4">
  <circle cx="0" cy="0" r="20" stroke-width="0.5" stroke="red" fill="red"/>
  <circle cx="0" cy="0" r="12.0096" stroke-width="0.5" stroke="black" fill="magenta"/>
   </g>
   <g id="cell5">
  <circle cx="0" cy="0" r="20" stroke-width="0.5" stroke="red" fill="red"/>
  <circle cx="0" cy="0" r="12.0096" stroke-width="0.5" stroke="black" fill="magenta"/>
   </g>
   <g id="cell6">
  <circle cx="0" cy="0" r="20" stroke-width="0.5" stroke="red" fill="red"/>
  <circle cx="0" cy="0" r="12.0096" stroke-width="0.5" stroke="black" fill="magenta"/>
   </g>
   <g id="cell7">
  <circle cx="0" cy="0" r="20" stroke-width="0.5" stroke="red" fill="red"/>
  <circle cx="0" cy="0" r="12.0096" stroke-width="0.5" stroke="black" fill="magenta"/>
   </g>
   <g id="cell8">
  <circle cx="0" cy="0" r="20" stroke-width="0.5" stroke="red" fill="red"/>
  <circle cx="0" cy="0" r="12.0096" stroke-width="0.5" stroke="black" fill="magenta"/>
   </g>
   <g id="cell9">
  <circle cx="0" cy="0" r="20" stroke-width="0.5" stroke="red" fill="red"/>
  <circle cx="0" cy="0" r="12.0096" stroke-width="0.5" stroke="black" fill="magenta"/>
   </g>
   <g id="cell10">
  <circle cx="0" cy="0" r="20" stroke-width="0.5" stroke="red" fill="red"/>
  <circle cx="0" cy="0" r="12.0096" stroke-width="0.5" stroke="black" fill="magenta"/>
   </g>
   <g id="cell11">
  <circle cx="0" cy="0" r="20" stroke-width="0.5" stroke="red" fill="red"/>
  <circle cx="0" cy="0" r="12.0096" stroke-width="0.5" stroke="black" fill="magenta"/>
   </g>
   <g id="cell12">
  <circle cx="0" cy="0" r="20" stroke-width="0.5" stroke="red" fill="red"/>
  <circle cx="0" cy="0" r="12.0096" stroke-width="0.5" stroke="black" fill="magenta"/>
   </g>
   <g id="cell13">
  <circle cx="0" cy="0" r="20" stroke-width="0.5" stroke="red" fill="red"/>
  <circle cx="0" cy="0" r="12.0096" stroke-width="0.5" stroke="black" fill="magenta"/>
   </g>
   <g id="cell14">
  <circle cx="0" cy="0" r="20" stroke-width="0.5" stroke="red" fill="red"/>
  <circle cx="0" cy="0" r="12.0096" stroke-width="0.5" stroke="black" fill="magenta"/>
   </g>
   <g id="cell15">
  <circle cx="0" cy="0" r="20" stroke-width="0.5" stroke="red" fill="red"/>
  <circle cx="0" cy="0" r="12.0096" stroke-width="0.5" stroke="black" fill="magenta"/>
   </g>
   <g id="cell16">
  <circle cx="0" cy="0" r="20" stroke-width="0.5" stroke="red" fill="red"/>
  <circle cx="0" cy="0" r="12.0096" stroke-width="0.5" stroke="black" fill="magenta"/>
   </g>
   <g id="cell17">
  <circle cx="0" cy="0" r="20" stroke-width="0.5" stroke="red" fill="red"/>
  <circle cx="0" cy="0" r="12.0096" stroke-width="0.5" stroke="black" fill="magenta"/>
   </g>
   <g id="cell18">
  <circle cx="0" cy="0" r="20" stroke-width="0.5" stroke="red" fill="red"/>
  <circle cx="0" cy="0" r="12.0096" stroke-width="0.5" stroke="black" fill="magenta"/>
   </g>
   <g id="cell19">
  <circle cx="0" cy="0" r="20" stroke-width="0.5" stroke="red" fill="red"/>
  <circle cx="0" cy="0" r="12.0096" stroke-width="0.5" stroke="black" fill="magenta"/>
   </g>
   <g id="cell20">
  <circle cx="0" cy="0" r="20" stroke-width="0.5" stroke="red" fill="red"/>
  <circle cx="0" cy="0" r="12.0096" stroke-width="0.5" stroke="black" fill="magenta"/>
   </g>
   <g id="cell21">
  <circle cx="0" cy="0" r="20" stroke-width="0.5" stroke="red" fill="red"/>
  <circle cx="0" cy="0" r="12.0096" stroke-width="0.5" stroke="black" fill="magenta"/>
   </g>
   <g id="cell22">
  <circle cx="0" cy="0" r="20" stroke-width="0.5" stroke="red" fill="red"/>
  <circle cx="0" cy="0" r="12.0096" stroke-width="0.5" stroke="black" fill="magenta"/>
   </g>
   <g id="cell23">
  <circle cx="0" cy="0" r="20" stroke-width="0.5" stroke="red" fill="red"/>
  <circle cx="0" cy="0" r="12.0096" stroke-width="0.5" stroke="black" fill="magenta"/>
   </g>
   <g id="cell24">
  <circle cx="0" cy="0" r="20" stroke-width="0.5" stroke="red" fill="red"/>
  <circle cx="0" cy="0" r="12.0096" stroke-width="0.5" stroke="black" fill="magenta"/>
   </g>
   <g id="cell25">
  <circle cx="0" cy="0" r="20" stroke-width="0.5" stroke="red" fill="red"/>
  <circle cx="0" cy="0" r="12.0096" stroke-width="0.5" stroke="black" fill="magenta"/>
   </g>
   <g id="cell26">
  <circle cx="0" cy="0" r="20" stroke-width="0.5" stroke="red" fill="red"/>
  <circle cx="0" cy="0" r="12.0096" stroke-width="0.5" stroke="black" fill="magenta"/>
   </g>
   <g id="cell27">
  <circle cx="0" cy="0" r="20" stroke-width="0.5" stroke="red" fill="red"/>
  <circle cx="0" cy="0" r="12.0096" stroke-width="0.5" stroke="black" fill="magenta"/>
   </g>
   <g id="cell28">
  <circle cx="0" cy="0" r="20" stroke-width="0.5" stroke="red" fill="red"/>
  <circle cx="0" cy="0" r="12.0096" stroke-width="0.5" stroke="black" fill="magenta"/>
   </g>
   <g id="cell29">
  <circle cx="0" cy="0" r="20" stroke-width="0.5" stroke="red" fill="red"/>
  <circle cx="0" cy="0" r="12.0096" stroke-width="0.5" stroke="black" fill="magenta"/>
   </g>
   <g id="cell30">
  <circle cx="0" cy="0" r="20" stroke-width="0.5" stroke="red" fill="red"/>
  <circle cx="0" cy="0" r="12.0096" stroke-width="0.5" stroke="black" fill="magenta"/>
   </g>
   <g id="cell31">
  <circle cx="0" cy="0" r="20" stroke-width="0.5" stroke="red" fill="red"/>
  <circle cx="0" cy="0" r="12.0096" stroke-width="0.5" stroke="black" fill="magenta"/>
   </g>
   <g id="cell32">
  <circle cx="0" cy="0" r="20" stroke-width="0.5" stroke="red" fill="red"/>
  <circle cx="0" cy="0" r="12.0096" stroke-width="0.5" stroke="black" fill="magenta"/>
   </g>
   <g id="cell33">
  <circle cx="0" cy="0" r="20" stroke-width="0.5" stroke="red" fill="red"/>
  <circle cx="0" cy="0" r="12.0096" stroke-width="0.5" stroke="black" fill="magenta"/>
   </g>
   <g id="cell34">
  <circle cx="0" cy="0" r="20" stroke-width="0.5" stroke="red" fill="red"/>
  <circle cx="0" cy="0" r="12.0096" stroke-width="0.5" stroke="black" fill="magenta"/>
   </g>
   <g id="cell35">
  <circle cx="0" cy="0" r="20" stroke-width="0.5" stroke="red" fill="red"/>
  <circle cx="0" cy="0" r="12.0096" stroke-width="0.5" stroke="black" fill="magenta"/>
   </g>
   <g id="cell36">
  <circle cx="0" cy="0" r="20" stroke-width="0.5" stroke="red" fill="red"/>
  <circle cx="0" cy="0" r="12.0096" stroke-width="0.5" stroke="black" fill="magenta"/>
   </g>
   <g id="cell37">
  <circle cx="0" cy="0" r="20" stroke-width="0.5" stroke="red" fill="red"/>
  <circle cx="0" cy="0" r="12.0096" stroke-width="0.5" stroke="black" fill="magenta"/>
   </g>
   <g id="cell38">
  <circle cx="0" cy="0" r="20" stroke-width="0.5" stroke="red" fill="red"/>
  <circle cx="0" cy="0" r="12.0096" stroke-width="0.5" stroke="black" fill="magenta"/>
   </g>
   <g id="cell39">
  <circle cx="0" cy="0" r="20" stroke-width="0.5" stroke="red" fill="red"/>
  <circle cx="0" cy="0" r="12.0096" stroke-width="0.5" stroke="black" fill="magenta"/>
   </g>
   <g id="cell40">
  <circle cx="0" cy="0" r="20" stroke-width="0.5" stroke="red" fill="red"/>
  <circle cx="0" cy="0" r="12.0096" stroke-width="0.5" stroke="black" fill="magenta"/>
   </g>
   <g id="cell41">
  <circle cx="0" cy="0" r="20" stroke-width="0.5" stroke="red" fill="red"/>
  <circle cx="0" cy="0" r="12.0096" stroke-width="0.5" stroke="black" fill="magenta"/>
   </g>
   <g id="cell42">
  <circle cx="0" cy="0" r="20" stroke-width="0.5" stroke="red" fill="red"/>
  <circle cx="0" cy="0" r="12.0096" stroke-width="0.5" stroke="black" fill="magenta"/>
   </g>
   <g id="cell43">
  <circle cx="0" cy="0" r="20" stroke-width="0.5" stroke="red" fill="red"/>
  <circle cx="0" cy="0" r="12.0096" stroke-width="0.5" stroke="black" fill="magenta"/>
   </g>
   <g id="cell44">
  <circle cx="0" cy="0" r="20" stroke-width="0.5" stroke="red" fill="red"/>
  <circle cx="0" cy="0" r="12.0096" stroke-width="0.5" stroke="black" fill="magenta"/>
   </g>
   <g id="cell45">
  <circle cx="0" cy="0" r="20" stroke-width="0.5" stroke="red" fill="red"/>
  <circle cx="0" cy="0" r="12.0096" stroke-width="0.5" stroke="black" fill="magenta"/>
   </g>
   <g id="cell46">
  <circle cx="0" cy="0" r="20" stroke-width="0.5" stroke="red" fill="red"/>
  <circle cx="0" cy="0" r="12.0096" stroke-width="0.5" stroke="black" fill="magenta"/>
   </g>
   <g id="cell47">
  <circle cx="0" cy="0" r="20" stroke-width="0.5" stroke="red" fill="red"/>
  <circle cx="0" cy="0" r="12.0096" stroke-width="0.5" stroke="black" fill="magenta"/>
   </g>
   <g id="cell48">
  <circle cx="0" cy="0" r="20" stroke-width="0.5" stroke="red" fill="red"/>
  <circle cx="0" cy="0" r="12.0096" stroke-width="0.5" stroke="black" fill="magenta"/>
   </g>
   <g id="cell49">
  <circle cx="0" cy="0" r="20" stroke-width="0.5" stroke="red" fill="red"/>
  <circle cx="0" cy="0" r="12.0096" stroke-width="0.5" stroke="black" fill="magenta"/>
   </g>
   <g id="cell50">
  <circle cx="0" cy="0" r="20" stroke-width="0.5" stroke="red" fill="red"/>
  <circle cx="0" cy="0" r="12.0096" stroke-width="0.5" stroke="black" fill="magenta"/>
   </g>
   <g id="cell51">
  <circle cx="0" cy="0" r="20" stroke-width="0.5" stroke="red" fill="red"/>
  <circle cx="0" cy="0" r="12.0096" stroke-width="0.5" stroke="black" fill="magenta"/>
   </g>
   <g id="cell52">
  <circle cx="0" cy="0" r="20" stroke-width="0.5" stroke="red" fill="red"/>
  <circle cx="0" cy="0" r="12.0096" stroke-width="0.5" stroke="black" fill="magenta"/>
   </g>
   <g id="cell53">
  <circle cx="0" cy="0" r="20" stroke-width="0.5" stroke="red" fill="red"/>
  <circle cx="0" cy="0" r="12.0096" stroke-width="0.5" stroke="black" fill="magenta"/>
   </g>
   <g id="cell54">
  <circle cx="0" cy="0" r="20" stroke-width="0.5" stroke="red" fill="red"/>
  <circle cx="0" cy="0" r="12.0096" stroke-width="0.5" stroke="black" fill="magenta"/>
   </g>
   <g id="cell55">
  <circle cx="0" cy="0" r="20" stroke-width="0.5" stroke="red" fill="red"/>
  <circle cx="0" cy="0" r="12.0096" stroke-width="0.5" stroke="black" fill="magenta"/>
   </g>
   <g id="cell56">
  <circle cx="0" cy="0" r="20" stroke-width="0.5" stroke="red" fill="red"/>
  <circle cx="0" cy="0" r="12.0096" stroke-width="0.5" stroke="black" fill="magenta"/>
   </g>
   <g id="cell57">
  <circle cx="0" cy="0" r="20" stroke-width="0.5" stroke="red" fill="red"/>
  <circle cx="0" cy="0" r="12.0096" stroke-width="0.5" stroke="black" fill="magenta"/>
   </g>
   <g id="cell58">
  <circle cx="0" cy="0" r="20" stroke-width="0.5" stroke="red" fill="red"/>
  <circle cx="0" cy="0" r="12.0096" stroke-width="0.5" stroke="black" fill="magenta"/>
   </g>
   <g id="cell59">
  <circle cx="0" cy="0" r="20" stroke-width="0.5" stroke="red" fill="red"/>
  <circle cx="0" cy="0" r="12.0096" stroke-width="0.5" stroke="black" fill="magenta"/>
   </g>
   <g id="cell60">
  <circle cx="0" cy="0" r="20" stroke-width="0.5" stroke="red" fill="red"/>
  <circle cx="0" cy="0" r="12.0096" stroke-width="0.5" stroke="black" fill="magenta"/>
   </g>
   <g id="cell61">
  <circle cx="0" cy="0" r="20" stroke-width="0.5" stroke="red" fill="red"/>
  <circle cx="0" cy="0" r="12.0096" stroke-width="0.5" stroke="black" fill="magenta"/>
   </g>
   <g id="cell62">
  <circle cx="0" cy="0" r="20" stroke-width="0.5" stroke="red" fill="red"/>
  <circle cx="0" cy="0" r="12.0096" stroke-width="0.5" stroke="black" fill="magenta"/>
   </g>
   <g id="cell63">
  <circle cx="0" cy="0" r="20" stroke-width="0.5" stroke="red" fill="red"/>
  <circle cx="0" cy="0" r="12.0096" stroke-width="0.5" stroke="black" fill="magenta"/>
   </g>
   <g id="cell64">
  <circle cx="0" cy="0" r="20" stroke-width="0.5" stroke="red" fill="red"/>
  <circle cx="0" cy="0" r="12.0096" stroke-width="0.5" stroke="black" fill="magenta"/>
   </g>
   <g id="cell65">
  <circle cx="0" cy="0" r="20" stroke-width="0.5" stroke="red" fill="red"/>
  <circle cx="0" cy="0" r="12.0096" stroke-width="0.5" stroke="black" fill="magenta"/>
   </g>
   <g id="cell66">
  <circle cx="0" cy="0" r="20" stroke-width="0.5" stroke="red" fill="red"/>
  <circle cx="0" cy="0" r="12.0096" stroke-width="0.5" stroke="black" fill="magenta"/>
   </g>
   <g id="cell67">
  <circle cx="0" cy="0" r="20" stroke-width="0.5" stroke="red" fill="red"/>
  <circle cx="0" cy="0" r="12.0096" stroke-width="0.5" stroke="black" fill="magenta"/>
   </g>
   <g id="cell68">
  <circle cx="0" cy="0" r="20" stroke-width="0.5" stroke="red" fill="red"/>
  <circle cx="0" cy="0" r="12.0096" stroke-width="0.5" stroke="black" fill="magenta"/>
   </g>
   <g id="cell69">
  <circle cx="0" cy="0" r="20" stroke-width="0.5" stroke="red" fill="red"/>
  <circle cx="0" cy="0" r="12.0096" stroke-width="0.5" stroke="black" fill="magenta"/>
   </g>
   <g id="cell70">
  <circle cx="0" cy="0" r="20" stroke-width="0.5" stroke="red" fill="red"/>
  <circle cx="0" cy="0" r="12.0096" stroke-width="0.5" stroke="black" fill="magenta"/>
   </g>
   <g id="cell71">
  <circle cx="0" cy="0" r="20" stroke-width="0.5" stroke="red" fill="red"/>
  <circle cx="0" cy="0" r="12.0096" stroke-width="0.5" stroke="black" fill="magenta"/>
   </g>
   <g id="cell72">
  <circle cx="0" cy="0" r="20" stroke-width="0.5" stroke="red" fill="red"/>
  <circle cx="0" cy="0" r="12.0096" stroke-width="0.5" stroke="black" fill="magenta"/>
   </g>
   <g id="cell73">
  <circle cx="0" cy="0" r="20" stroke-width="0.5" stroke="red" fill="red"/>
  <circle cx="0" cy="0" r="12.0096" stroke-width="0.5" stroke="black" fill="magenta"/>
   </g>
   <g id="cell74">
  <circle cx="0" cy="0" r="20" stroke-width="0.5" stroke="red" fill="red"/>
  <circle cx="0" cy="0" r="12.0096" stroke-width="0.5" stroke="black" fill="magenta"/>
   </g>
   <g id="cell75">
  <circle cx="0" cy="0" r="20" stroke-width="0.5" stroke="red" fill="red"/>
  <circle cx="0" cy="0" r="12.0096" stroke-width="0.5" stroke="black" fill="magenta"/>
   </g>
   <g id="cell76">
  <circle cx="0" cy="0" r="20" stroke-width="0.5" stroke="red" fill="red"/>
  <circle cx="0" cy="0" r="12.0096" stroke-width="0.5" stroke="black" fill="magenta"/>
   </g>
   <g id="cell77">
  <circle cx="0" cy="0" r="20" stroke-width="0.5" stroke="red" fill="red"/>
  <circle cx="0" cy="0" r="12.0096" stroke-width="0.5" stroke="black" fill="magenta"/>
   </g>
   <g id="cell78">
  <circle cx="0" cy="0" r="20" stroke-width="0.5" stroke="red" fill="red"/>
  <circle cx="0" cy="0" r="12.0096" stroke-width="0.5" stroke="black" fill="magenta"/>
   </g>
   <g id="cell79">
  <circle cx="0" cy="0" r="20" stroke-width="0.5" stroke="red" fill="red"/>
  <circle cx="0" cy="0" r="12.0096" stroke-width="0.5" stroke="black" fill="magenta"/>
   </g>
   <g id="cell80">
  <circle cx="0" cy="0" r="20" stroke-width="0.5" stroke="red" fill="red"/>
  <circle cx="0" cy="0" r="12.0096" stroke-width="0.5" stroke="black" fill="magenta"/>
   </g>
   <g id="cell81">
  <circle cx="0" cy="0" r="20" stroke-width="0.5" stroke="red" fill="red"/>
  <circle cx="0" cy="0" r="12.0096" stroke-width="0.5" stroke="black" fill="magenta"/>
   </g>
   <g id="cell82">
  <circle cx="0" cy="0" r="20" stroke-width="0.5" stroke="red" fill="red"/>
  <circle cx="0" cy="0" r="12.0096" stroke-width="0.5" stroke="black" fill="magenta"/>
   </g>
   <g id="cell83">
  <circle cx="0" cy="0" r="20" stroke-width="0.5" stroke="red" fill="red"/>
  <circle cx="0" cy="0" r="12.0096" stroke-width="0.5" stroke="black" fill="magenta"/>
   </g>
   <g id="cell84">
  <circle cx="0" cy="0" r="20" stroke-width="0.5" stroke="red" fill="red"/>
  <circle cx="0" cy="0" r="12.0096" stroke-width="0.5" stroke="black" fill="magenta"/>
   </g>
   <g id="cell85">
  <circle cx="0" cy="0" r="20" stroke-width="0.5" stroke="red" fill="red"/>
  <circle cx="0" cy="0" r="12.0096" stroke-width="0.5" stroke="black" fill="magenta"/>
   </g>
   <g id="cell86">
  <circle cx="0" cy="0" r="20" stroke-width="0.5" stroke="red" fill="red"/>
  <circle cx="0" cy="0" r="12.0096" stroke-width="0.5" stroke="black" fill="magenta"/>
   </g>
   <g id="cell87">
  <circle cx="0" cy="0" r="20" stroke-width="0.5" stroke="red" fill="red"/>
  <circle cx="0" cy="0" r="12.0096" stroke-width="0.5" stroke="black" fill="magenta"/>
   </g>
   <g id="cell88">
  <circle cx="0" cy="0" r="20" stroke-width="0.5" stroke="red" fill="red"/>
  <circle cx="0" cy="0" r="12.0096" stroke-width="0.5" stroke="black" fill="magenta"/>
   </g>
   <g id="cell89">
  <circle cx="0" cy="0" r="20" stroke-width="0.5" stroke="red" fill="red"/>
  <circle cx="0" cy="0" r="12.0096" stroke-width="0.5" stroke="black" fill="magenta"/>
   </g>
   <g id="cell256">
  <circle cx="0" cy="0" r="20" stroke-width="0.5" stroke="red" fill="red"/>
  <circle cx="0" cy="0" r="12.0096" stroke-width="0.5" stroke="black" fill="magenta"/>
   </g>
   <g id="cell255">
  <circle cx="0" cy="0" r="20" stroke-width="0.5" stroke="red" fill="red"/>
  <circle cx="0" cy="0" r="12.0096" stroke-width="0.5" stroke="black" fill="magenta"/>
   </g>
   <g id="cell92">
  <circle cx="0" cy="0" r="20" stroke-width="0.5" stroke="white" fill="white"/>
  <circle cx="0" cy="0" r="12.0096" stroke-width="0.5" stroke="black" fill="magenta"/>
   </g>
   <g id="cell93">
  <circle cx="0" cy="0" r="20" stroke-width="0.5" stroke="white" fill="white"/>
  <circle cx="0" cy="0" r="12.0096" stroke-width="0.5" stroke="black" fill="magenta"/>
   </g>
   <g id="cell94">
  <circle cx="0" cy="0" r="20" stroke-width="0.5" stroke="white" fill="white"/>
  <circle cx="0" cy="0" r="12.0096" stroke-width="0.5" stroke="black" fill="magenta"/>
   </g>
   <g id="cell95">
  <circle cx="0" cy="0" r="20" stroke-width="0.5" stroke="white" fill="white"/>
  <circle cx="0" cy="0" r="12.0096" stroke-width="0.5" stroke="black" fill="magenta"/>
   </g>
   <g id="cell96">
  <circle cx="0" cy="0" r="20" stroke-width="0.5" stroke="white" fill="white"/>
  <circle cx="0" cy="0" r="12.0096" stroke-width="0.5" stroke="black" fill="magenta"/>
   </g>
   <g id="cell97">
  <circle cx="0" cy="0" r="20" stroke-width="0.5" stroke="white" fill="white"/>
  <circle cx="0" cy="0" r="12.0096" stroke-width="0.5" stroke="black" fill="magenta"/>
   </g>
   <g id="cell98">
  <circle cx="0" cy="0" r="20" stroke-width="0.5" stroke="white" fill="white"/>
  <circle cx="0" cy="0" r="12.0096" stroke-width="0.5" stroke="black" fill="magenta"/>
   </g>
   <g id="cell99">
  <circle cx="0" cy="0" r="20" stroke-width="0.5" stroke="white" fill="white"/>
  <circle cx="0" cy="0" r="12.0096" stroke-width="0.5" stroke="black" fill="magenta"/>
   </g>
   <g id="cell100">
  <circle cx="0" cy="0" r="20" stroke-width="0.5" stroke="white" fill="white"/>
  <circle cx="0" cy="0" r="12.0096" stroke-width="0.5" stroke="black" fill="magenta"/>
   </g>
   <g id="cell101">
  <circle cx="0" cy="0" r="20" stroke-width="0.5" stroke="red" fill="red"/>
  <circle cx="0" cy="0" r="12.0096" stroke-width="0.5" stroke="black" fill="magenta"/>
   </g>
   <g id="cell102">
  <circle cx="0" cy="0" r="20" stroke-width="0.5" stroke="red" fill="red"/>
  <circle cx="0" cy="0" r="12.0096" stroke-width="0.5" stroke="black" fill="magenta"/>
   </g>
   <g id="cell103">
  <circle cx="0" cy="0" r="20" stroke-width="0.5" stroke="red" fill="red"/>
  <circle cx="0" cy="0" r="12.0096" stroke-width="0.5" stroke="black" fill="magenta"/>
   </g>
   <g id="cell104">
  <circle cx="0" cy="0" r="20" stroke-width="0.5" stroke="red" fill="red"/>
  <circle cx="0" cy="0" r="12.0096" stroke-width="0.5" stroke="black" fill="magenta"/>
   </g>
   <g id="cell105">
  <circle cx="0" cy="0" r="20" stroke-width="0.5" stroke="red" fill="red"/>
  <circle cx="0" cy="0" r="12.0096" stroke-width="0.5" stroke="black" fill="magenta"/>
   </g>
   <g id="cell106">
  <circle cx="0" cy="0" r="20" stroke-width="0.5" stroke="red" fill="red"/>
  <circle cx="0" cy="0" r="12.0096" stroke-width="0.5" stroke="black" fill="magenta"/>
   </g>
   <g id="cell107">
  <circle cx="0" cy="0" r="20" stroke-width="0.5" stroke="red" fill="red"/>
  <circle cx="0" cy="0" r="12.0096" stroke-width="0.5" stroke="black" fill="magenta"/>
   </g>
   <g id="cell108">
  <circle cx="0" cy="0" r="20" stroke-width="0.5" stroke="red" fill="red"/>
  <circle cx="0" cy="0" r="12.0096" stroke-width="0.5" stroke="black" fill="magenta"/>
   </g>
   <g id="cell109">
  <circle cx="0" cy="0" r="20" stroke-width="0.5" stroke="red" fill="red"/>
  <circle cx="0" cy="0" r="12.0096" stroke-width="0.5" stroke="black" fill="magenta"/>
   </g>
   <g id="cell110">
  <circle cx="0" cy="0" r="20" stroke-width="0.5" stroke="red" fill="red"/>
  <circle cx="0" cy="0" r="12.0096" stroke-width="0.5" stroke="black" fill="magenta"/>
   </g>
   <g id="cell325">
  <circle cx="0" cy="0" r="20" stroke-width="0.5" stroke="red" fill="red"/>
  <circle cx="0" cy="0" r="12.0096" stroke-width="0.5" stroke="black" fill="magenta"/>
   </g>
   <g id="cell324">
  <circle cx="0" cy="0" r="20" stroke-width="0.5" stroke="red" fill="red"/>
  <circle cx="0" cy="0" r="12.0096" stroke-width="0.5" stroke="black" fill="magenta"/>
   </g>
   <g id="cell323">
  <circle cx="0" cy="0" r="20" stroke-width="0.5" stroke="red" fill="red"/>
  <circle cx="0" cy="0" r="12.0096" stroke-width="0.5" stroke="black" fill="magenta"/>
   </g>
   <g id="cell254">
  <circle cx="0" cy="0" r="20" stroke-width="0.5" stroke="red" fill="red"/>
  <circle cx="0" cy="0" r="12.0096" stroke-width="0.5" stroke="black" fill="magenta"/>
   </g>
   <g id="cell272">
  <circle cx="0" cy="0" r="20" stroke-width="0.5" stroke="red" fill="red"/>
  <circle cx="0" cy="0" r="12.0096" stroke-width="0.5" stroke="black" fill="magenta"/>
   </g>
   <g id="cell320">
  <circle cx="0" cy="0" r="20" stroke-width="0.5" stroke="red" fill="red"/>
  <circle cx="0" cy="0" r="12.0096" stroke-width="0.5" stroke="black" fill="magenta"/>
   </g>
   <g id="cell319">
  <circle cx="0" cy="0" r="20" stroke-width="0.5" stroke="red" fill="red"/>
  <circle cx="0" cy="0" r="12.0096" stroke-width="0.5" stroke="black" fill="magenta"/>
   </g>
   <g id="cell318">
  <circle cx="0" cy="0" r="20" stroke-width="0.5" stroke="red" fill="red"/>
  <circle cx="0" cy="0" r="12.0096" stroke-width="0.5" stroke="black" fill="magenta"/>
   </g>
   <g id="cell119">
  <circle cx="1000.04" cy="244.037" r="20" stroke-width="0.5" stroke="red" fill="red"/>
  <circle cx="1000.04" cy="244.037" r="12.0096" stroke-width="0.5" stroke="black" fill="magenta"/>
   </g>
   <g id="cell120">
  <circle cx="0" cy="0" r="20" stroke-width="0.5" stroke="red" fill="red"/>
  <circle cx="0" cy="0" r="12.0096" stroke-width="0.5" stroke="black" fill="magenta"/>
   </g>
   <g id="cell121">
  <circle cx="0" cy="0" r="20" stroke-width="0.5" stroke="red" fill="red"/>
  <circle cx="0" cy="0" r="12.0096" stroke-width="0.5" stroke="black" fill="magenta"/>
   </g>
   <g id="cell122">
  <circle cx="0" cy="0" r="20" stroke-width="0.5" stroke="red" fill="red"/>
  <circle cx="0" cy="0" r="12.0096" stroke-width="0.5" stroke="black" fill="magenta"/>
   </g>
   <g id="cell123">
  <circle cx="0" cy="0" r="20" stroke-width="0.5" stroke="red" fill="red"/>
  <circle cx="0" cy="0" r="12.0096" stroke-width="0.5" stroke="black" fill="magenta"/>
   </g>
   <g id="cell124">
  <circle cx="0" cy="0" r="20" stroke-width="0.5" stroke="red" fill="red"/>
  <circle cx="0" cy="0" r="12.0096" stroke-width="0.5" stroke="black" fill="magenta"/>
   </g>
   <g id="cell125">
  <circle cx="0" cy="0" r="20" stroke-width="0.5" stroke="red" fill="red"/>
  <circle cx="0" cy="0" r="12.0096" stroke-width="0.5" stroke="black" fill="magenta"/>
   </g>
   <g id="cell126">
  <circle cx="0" cy="0" r="20" stroke-width="0.5" stroke="red" fill="red"/>
  <circle cx="0" cy="0" r="12.0096" stroke-width="0.5" stroke="black" fill="magenta"/>
   </g>
   <g id="cell127">
  <circle cx="0" cy="0" r="20" stroke-width="0.5" stroke="red" fill="red"/>
  <circle cx="0" cy="0" r="12.0096" stroke-width="0.5" stroke="black" fill="magenta"/>
   </g>
   <g id="cell128">
  <circle cx="0" cy="0" r="20" stroke-width="0.5" stroke="red" fill="red"/>
  <circle cx="0" cy="0" r="12.0096" stroke-width="0.5" stroke="black" fill="magenta"/>
   </g>
   <g id="cell129">
  <circle cx="0" cy="0" r="20" stroke-width="0.5" stroke="red" fill="red"/>
  <circle cx="0" cy="0" r="12.0096" stroke-width="0.5" stroke="black" fill="magenta"/>
   </g>
   <g id="cell130">
  <circle cx="0" cy="0" r="20" stroke-width="0.5" stroke="red" fill="red"/>
  <circle cx="0" cy="0" r="12.0096" stroke-width="0.5" stroke="black" fill="magenta"/>
   </g>
   <g id="cell131">
  <circle cx="0" cy="0" r="20" stroke-width="0.5" stroke="red" fill="red"/>
  <circle cx="0" cy="0" r="12.0096" stroke-width="0.5" stroke="black" fill="magenta"/>
   </g>
   <g id="cell132">
  <circle cx="0" cy="0" r="20" stroke-width="0.5" stroke="red" fill="red"/>
  <circle cx="0" cy="0" r="12.0096" stroke-width="0.5" stroke="black" fill="magenta"/>
   </g>
   <g id="cell133">
  <circle cx="0" cy="0" r="20" stroke-width="0.5" stroke="red" fill="red"/>
  <circle cx="0" cy="0" r="12.0096" stroke-width="0.5" stroke="black" fill="magenta"/>
   </g>
   <g id="cell134">
  <circle cx="0" cy="0" r="20" stroke-width="0.5" stroke="red" fill="red"/>
  <circle cx="0" cy="0" r="12.0096" stroke-width="0.5" stroke="black" fill="magenta"/>
   </g>
   <g id="cell135">
  <circle cx="0" cy="0" r="20" stroke-width="0.5" stroke="red" fill="red"/>
  <circle cx="0" cy="0" r="12.0096" stroke-width="0.5" stroke="black" fill="magenta"/>
   </g>
   <g id="cell136">
  <circle cx="0" cy="0" r="20" stroke-width="0.5" stroke="red" fill="red"/>
  <circle cx="0" cy="0" r="12.0096" stroke-width="0.5" stroke="black" fill="magenta"/>
   </g>
   <g id="cell137">
  <circle cx="0" cy="0" r="20" stroke-width="0.5" stroke="red" fill="red"/>
  <circle cx="0" cy="0" r="12.0096" stroke-width="0.5" stroke="black" fill="magenta"/>
   </g>
   <g id="cell138">
  <circle cx="0" cy="0" r="20" stroke-width="0.5" stroke="red" fill="red"/>
  <circle cx="0" cy="0" r="12.0096" stroke-width="0.5" stroke="black" fill="magenta"/>
   </g>
   <g id="cell139">
  <circle cx="0" cy="0" r="20" stroke-width="0.5" stroke="red" fill="red"/>
  <circle cx="0" cy="0" r="12.0096" stroke-width="0.5" stroke="black" fill="magenta"/>
   </g>
   <g id="cell140">
  <circle cx="0" cy="0" r="20" stroke-width="0.5" stroke="red" fill="red"/>
  <circle cx="0" cy="0" r="12.0096" stroke-width="0.5" stroke="black" fill="magenta"/>
   </g>
   <g id="cell141">
  <circle cx="0" cy="0" r="20" stroke-width="0.5" stroke="red" fill="red"/>
  <circle cx="0" cy="0" r="12.0096" stroke-width="0.5" stroke="black" fill="magenta"/>
   </g>
   <g id="cell317">
  <circle cx="0" cy="0" r="20" stroke-width="0.5" stroke="red" fill="red"/>
  <circle cx="0" cy="0" r="12.0096" stroke-width="0.5" stroke="black" fill="magenta"/>
   </g>
   <g id="cell316">
  <circle cx="0" cy="0" r="20" stroke-width="0.5" stroke="red" fill="red"/>
  <circle cx="0" cy="0" r="12.0096" stroke-width="0.5" stroke="black" fill="magenta"/>
   </g>
   <g id="cell144">
  <circle cx="0" cy="0" r="20" stroke-width="0.5" stroke="red" fill="red"/>
  <circle cx="0" cy="0" r="12.0096" stroke-width="0.5" stroke="black" fill="magenta"/>
   </g>
   <g id="cell315">
  <circle cx="0" cy="0" r="20" stroke-width="0.5" stroke="red" fill="red"/>
  <circle cx="0" cy="0" r="12.0096" stroke-width="0.5" stroke="black" fill="magenta"/>
   </g>
   <g id="cell146">
  <circle cx="0" cy="0" r="20" stroke-width="0.5" stroke="red" fill="red"/>
  <circle cx="0" cy="0" r="12.0096" stroke-width="0.5" stroke="black" fill="magenta"/>
   </g>
   <g id="cell147">
  <circle cx="0" cy="0" r="20" stroke-width="0.5" stroke="red" fill="red"/>
  <circle cx="0" cy="0" r="12.0096" stroke-width="0.5" stroke="black" fill="magenta"/>
   </g>
   <g id="cell148">
  <circle cx="0" cy="0" r="20" stroke-width="0.5" stroke="red" fill="red"/>
  <circle cx="0" cy="0" r="12.0096" stroke-width="0.5" stroke="black" fill="magenta"/>
   </g>
   <g id="cell149">
  <circle cx="0" cy="0" r="20" stroke-width="0.5" stroke="red" fill="red"/>
  <circle cx="0" cy="0" r="12.0096" stroke-width="0.5" stroke="black" fill="magenta"/>
   </g>
   <g id="cell150">
  <circle cx="0" cy="0" r="20" stroke-width="0.5" stroke="red" fill="red"/>
  <circle cx="0" cy="0" r="12.0096" stroke-width="0.5" stroke="black" fill="magenta"/>
   </g>
   <g id="cell151">
  <circle cx="0" cy="0" r="20" stroke-width="0.5" stroke="red" fill="red"/>
  <circle cx="0" cy="0" r="12.0096" stroke-width="0.5" stroke="black" fill="magenta"/>
   </g>
   <g id="cell152">
  <circle cx="0" cy="0" r="20" stroke-width="0.5" stroke="red" fill="red"/>
  <circle cx="0" cy="0" r="12.0096" stroke-width="0.5" stroke="black" fill="magenta"/>
   </g>
   <g id="cell153">
  <circle cx="0" cy="0" r="20" stroke-width="0.5" stroke="red" fill="red"/>
  <circle cx="0" cy="0" r="12.0096" stroke-width="0.5" stroke="black" fill="magenta"/>
   </g>
   <g id="cell154">
  <circle cx="0" cy="0" r="20" stroke-width="0.5" stroke="red" fill="red"/>
  <circle cx="0" cy="0" r="12.0096" stroke-width="0.5" stroke="black" fill="magenta"/>
   </g>
   <g id="cell155">
  <circle cx="0" cy="0" r="20" stroke-width="0.5" stroke="red" fill="red"/>
  <circle cx="0" cy="0" r="12.0096" stroke-width="0.5" stroke="black" fill="magenta"/>
   </g>
   <g id="cell156">
  <circle cx="0" cy="0" r="20" stroke-width="0.5" stroke="red" fill="red"/>
  <circle cx="0" cy="0" r="12.0096" stroke-width="0.5" stroke="black" fill="magenta"/>
   </g>
   <g id="cell157">
  <circle cx="0" cy="0" r="20" stroke-width="0.5" stroke="red" fill="red"/>
  <circle cx="0" cy="0" r="12.0096" stroke-width="0.5" stroke="black" fill="magenta"/>
   </g>
   <g id="cell158">
  <circle cx="0" cy="0" r="20" stroke-width="0.5" stroke="red" fill="red"/>
  <circle cx="0" cy="0" r="12.0096" stroke-width="0.5" stroke="black" fill="magenta"/>
   </g>
   <g id="cell159">
  <circle cx="0" cy="0" r="20" stroke-width="0.5" stroke="red" fill="red"/>
  <circle cx="0" cy="0" r="12.0096" stroke-width="0.5" stroke="black" fill="magenta"/>
   </g>
   <g id="cell314">
  <circle cx="0" cy="0" r="20" stroke-width="0.5" stroke="red" fill="red"/>
  <circle cx="0" cy="0" r="12.0096" stroke-width="0.5" stroke="black" fill="magenta"/>
   </g>
   <g id="cell313">
  <circle cx="0" cy="0" r="20" stroke-width="0.5" stroke="red" fill="red"/>
  <circle cx="0" cy="0" r="12.0096" stroke-width="0.5" stroke="black" fill="magenta"/>
   </g>
   <g id="cell312">
  <circle cx="0" cy="0" r="20" stroke-width="0.5" stroke="red" fill="red"/>
  <circle cx="0" cy="0" r="12.0096" stroke-width="0.5" stroke="black" fill="magenta"/>
   </g>
   <g id="cell311">
  <circle cx="0" cy="0" r="20" stroke-width="0.5" stroke="red" fill="red"/>
  <circle cx="0" cy="0" r="12.0096" stroke-width="0.5" stroke="black" fill="magenta"/>
   </g>
   <g id="cell271">
  <circle cx="0" cy="0" r="20" stroke-width="0.5" stroke="red" fill="red"/>
  <circle cx="0" cy="0" r="12.0096" stroke-width="0.5" stroke="black" fill="magenta"/>
   </g>
   <g id="cell270">
  <circle cx="0" cy="0" r="20" stroke-width="0.5" stroke="red" fill="red"/>
  <circle cx="0" cy="0" r="12.0096" stroke-width="0.5" stroke="black" fill="magenta"/>
   </g>
   <g id="cell269">
  <circle cx="0" cy="0" r="20" stroke-width="0.5" stroke="red" fill="red"/>
  <circle cx="0" cy="0" r="12.0096" stroke-width="0.5" stroke="black" fill="magenta"/>
   </g>
   <g id="cell167">
  <circle cx="0" cy="0" r="20" stroke-width="0.5" stroke="red" fill="red"/>
  <circle cx="0" cy="0" r="12.0096" stroke-width="0.5" stroke="black" fill="magenta"/>
   </g>
   <g id="cell168">
  <circle cx="0" cy="0" r="20" stroke-width="0.5" stroke="red" fill="red"/>
  <circle cx="0" cy="0" r="12.0096" stroke-width="0.5" stroke="black" fill="magenta"/>
   </g>
   <g id="cell169">
  <circle cx="0" cy="0" r="20" stroke-width="0.5" stroke="red" fill="red"/>
  <circle cx="0" cy="0" r="12.0096" stroke-width="0.5" stroke="black" fill="magenta"/>
   </g>
   <g id="cell268">
  <circle cx="0" cy="0" r="20" stroke-width="0.5" stroke="red" fill="red"/>
  <circle cx="0" cy="0" r="12.0096" stroke-width="0.5" stroke="black" fill="magenta"/>
   </g>
   <g id="cell306">
  <circle cx="0" cy="0" r="20" stroke-width="0.5" stroke="red" fill="red"/>
  <circle cx="0" cy="0" r="12.0096" stroke-width="0.5" stroke="black" fill="magenta"/>
   </g>
   <g id="cell305">
  <circle cx="0" cy="0" r="20" stroke-width="0.5" stroke="red" fill="red"/>
  <circle cx="0" cy="0" r="12.0096" stroke-width="0.5" stroke="black" fill="magenta"/>
   </g>
   <g id="cell304">
  <circle cx="0" cy="0" r="20" stroke-width="0.5" stroke="red" fill="red"/>
  <circle cx="0" cy="0" r="12.0096" stroke-width="0.5" stroke="black" fill="magenta"/>
   </g>
   <g id="cell303">
  <circle cx="0" cy="0" r="20" stroke-width="0.5" stroke="red" fill="red"/>
  <circle cx="0" cy="0" r="12.0096" stroke-width="0.5" stroke="black" fill="magenta"/>
   </g>
   <g id="cell302">
  <circle cx="0" cy="0" r="20" stroke-width="0.5" stroke="red" fill="red"/>
  <circle cx="0" cy="0" r="12.0096" stroke-width="0.5" stroke="black" fill="magenta"/>
   </g>
   <g id="cell176">
  <circle cx="0" cy="0" r="20" stroke-width="0.5" stroke="red" fill="red"/>
  <circle cx="0" cy="0" r="12.0096" stroke-width="0.5" stroke="black" fill="magenta"/>
   </g>
   <g id="cell177">
  <circle cx="0" cy="0" r="20" stroke-width="0.5" stroke="red" fill="red"/>
  <circle cx="0" cy="0" r="12.0096" stroke-width="0.5" stroke="black" fill="magenta"/>
   </g>
   <g id="cell178">
  <circle cx="0" cy="0" r="20" stroke-width="0.5" stroke="red" fill="red"/>
  <circle cx="0" cy="0" r="12.0096" stroke-width="0.5" stroke="black" fill="magenta"/>
   </g>
   <g id="cell179">
  <circle cx="0" cy="0" r="20" stroke-width="0.5" stroke="red" fill="red"/>
  <circle cx="0" cy="0" r="12.0096" stroke-width="0.5" stroke="black" fill="magenta"/>
   </g>
   <g id="cell180">
  <circle cx="0" cy="0" r="20" stroke-width="0.5" stroke="red" fill="red"/>
  <circle cx="0" cy="0" r="12.0096" stroke-width="0.5" stroke="black" fill="magenta"/>
   </g>
   <g id="cell181">
  <circle cx="0" cy="0" r="20" stroke-width="0.5" stroke="red" fill="red"/>
  <circle cx="0" cy="0" r="12.0096" stroke-width="0.5" stroke="black" fill="magenta"/>
   </g>
   <g id="cell182">
  <circle cx="0" cy="0" r="20" stroke-width="0.5" stroke="red" fill="red"/>
  <circle cx="0" cy="0" r="12.0096" stroke-width="0.5" stroke="black" fill="magenta"/>
   </g>
   <g id="cell183">
  <circle cx="0" cy="0" r="20" stroke-width="0.5" stroke="red" fill="red"/>
  <circle cx="0" cy="0" r="12.0096" stroke-width="0.5" stroke="black" fill="magenta"/>
   </g>
   <g id="cell184">
  <circle cx="0" cy="0" r="20" stroke-width="0.5" stroke="red" fill="red"/>
  <circle cx="0" cy="0" r="12.0096" stroke-width="0.5" stroke="black" fill="magenta"/>
   </g>
   <g id="cell185">
  <circle cx="0" cy="0" r="20" stroke-width="0.5" stroke="red" fill="red"/>
  <circle cx="0" cy="0" r="12.0096" stroke-width="0.5" stroke="black" fill="magenta"/>
   </g>
   <g id="cell186">
  <circle cx="0" cy="0" r="20" stroke-width="0.5" stroke="red" fill="red"/>
  <circle cx="0" cy="0" r="12.0096" stroke-width="0.5" stroke="black" fill="magenta"/>
   </g>
   <g id="cell187">
  <circle cx="0" cy="0" r="20" stroke-width="0.5" stroke="red" fill="red"/>
  <circle cx="0" cy="0" r="12.0096" stroke-width="0.5" stroke="black" fill="magenta"/>
   </g>
   <g id="cell188">
  <circle cx="0" cy="0" r="20" stroke-width="0.5" stroke="red" fill="red"/>
  <circle cx="0" cy="0" r="12.0096" stroke-width="0.5" stroke="black" fill="magenta"/>
   </g>
   <g id="cell189">
  <circle cx="0" cy="0" r="20" stroke-width="0.5" stroke="red" fill="red"/>
  <circle cx="0" cy="0" r="12.0096" stroke-width="0.5" stroke="black" fill="magenta"/>
   </g>
   <g id="cell190">
  <circle cx="0" cy="0" r="20" stroke-width="0.5" stroke="red" fill="red"/>
  <circle cx="0" cy="0" r="12.0096" stroke-width="0.5" stroke="black" fill="magenta"/>
   </g>
   <g id="cell301">
  <circle cx="0" cy="0" r="20" stroke-width="0.5" stroke="red" fill="red"/>
  <circle cx="0" cy="0" r="12.0096" stroke-width="0.5" stroke="black" fill="magenta"/>
   </g>
   <g id="cell300">
  <circle cx="0" cy="0" r="20" stroke-width="0.5" stroke="red" fill="red"/>
  <circle cx="0" cy="0" r="12.0096" stroke-width="0.5" stroke="black" fill="magenta"/>
   </g>
   <g id="cell299">
  <circle cx="0" cy="0" r="20" stroke-width="0.5" stroke="red" fill="red"/>
  <circle cx="0" cy="0" r="12.0096" stroke-width="0.5" stroke="black" fill="magenta"/>
   </g>
   <g id="cell298">
  <circle cx="0" cy="0" r="20" stroke-width="0.5" stroke="red" fill="red"/>
  <circle cx="0" cy="0" r="12.0096" stroke-width="0.5" stroke="black" fill="magenta"/>
   </g>
   <g id="cell297">
  <circle cx="0" cy="0" r="20" stroke-width="0.5" stroke="red" fill="red"/>
  <circle cx="0" cy="0" r="12.0096" stroke-width="0.5" stroke="black" fill="magenta"/>
   </g>
   <g id="cell296">
  <circle cx="0" cy="0" r="20" stroke-width="0.5" stroke="red" fill="red"/>
  <circle cx="0" cy="0" r="12.0096" stroke-width="0.5" stroke="black" fill="magenta"/>
   </g>
   <g id="cell295">
  <circle cx="0" cy="0" r="20" stroke-width="0.5" stroke="red" fill="red"/>
  <circle cx="0" cy="0" r="12.0096" stroke-width="0.5" stroke="black" fill="magenta"/>
   </g>
   <g id="cell294">
  <circle cx="0" cy="0" r="20" stroke-width="0.5" stroke="red" fill="red"/>
  <circle cx="0" cy="0" r="12.0096" stroke-width="0.5" stroke="black" fill="magenta"/>
   </g>
   <g id="cell199">
  <circle cx="0" cy="0" r="20" stroke-width="0.5" stroke="red" fill="red"/>
  <circle cx="0" cy="0" r="12.0096" stroke-width="0.5" stroke="black" fill="magenta"/>
   </g>
   <g id="cell200">
  <circle cx="0" cy="0" r="20" stroke-width="0.5" stroke="red" fill="red"/>
  <circle cx="0" cy="0" r="12.0096" stroke-width="0.5" stroke="black" fill="magenta"/>
   </g>
   <g id="cell201">
  <circle cx="0" cy="0" r="20" stroke-width="0.5" stroke="red" fill="red"/>
  <circle cx="0" cy="0" r="12.0096" stroke-width="0.5" stroke="black" fill="magenta"/>
   </g>
   <g id="cell202">
  <circle cx="0" cy="0" r="20" stroke-width="0.5" stroke="red" fill="red"/>
  <circle cx="0" cy="0" r="12.0096" stroke-width="0.5" stroke="black" fill="magenta"/>
   </g>
   <g id="cell293">
  <circle cx="0" cy="0" r="20" stroke-width="0.5" stroke="red" fill="red"/>
  <circle cx="0" cy="0" r="12.0096" stroke-width="0.5" stroke="black" fill="magenta"/>
   </g>
   <g id="cell292">
  <circle cx="0" cy="0" r="20" stroke-width="0.5" stroke="red" fill="red"/>
  <circle cx="0" cy="0" r="12.0096" stroke-width="0.5" stroke="black" fill="magenta"/>
   </g>
   <g id="cell291">
  <circle cx="0" cy="0" r="20" stroke-width="0.5" stroke="red" fill="red"/>
  <circle cx="0" cy="0" r="12.0096" stroke-width="0.5" stroke="black" fill="magenta"/>
   </g>
   <g id="cell206">
  <circle cx="0" cy="0" r="20" stroke-width="0.5" stroke="red" fill="red"/>
  <circle cx="0" cy="0" r="12.0096" stroke-width="0.5" stroke="black" fill="magenta"/>
   </g>
   <g id="cell207">
  <circle cx="0" cy="0" r="20" stroke-width="0.5" stroke="red" fill="red"/>
  <circle cx="0" cy="0" r="12.0096" stroke-width="0.5" stroke="black" fill="magenta"/>
   </g>
   <g id="cell208">
  <circle cx="0" cy="0" r="20" stroke-width="0.5" stroke="red" fill="red"/>
  <circle cx="0" cy="0" r="12.0096" stroke-width="0.5" stroke="black" fill="magenta"/>
   </g>
   <g id="cell209">
  <circle cx="0" cy="0" r="20" stroke-width="0.5" stroke="red" fill="red"/>
  <circle cx="0" cy="0" r="12.0096" stroke-width="0.5" stroke="black" fill="magenta"/>
   </g>
   <g id="cell210">
  <circle cx="0" cy="0" r="20" stroke-width="0.5" stroke="red" fill="red"/>
  <circle cx="0" cy="0" r="12.0096" stroke-width="0.5" stroke="black" fill="magenta"/>
   </g>
   <g id="cell211">
  <circle cx="0" cy="0" r="20" stroke-width="0.5" stroke="red" fill="red"/>
  <circle cx="0" cy="0" r="12.0096" stroke-width="0.5" stroke="black" fill="magenta"/>
   </g>
   <g id="cell290">
  <circle cx="0" cy="0" r="20" stroke-width="0.5" stroke="red" fill="red"/>
  <circle cx="0" cy="0" r="12.0096" stroke-width="0.5" stroke="black" fill="magenta"/>
   </g>
   <g id="cell289">
  <circle cx="0" cy="0" r="20" stroke-width="0.5" stroke="red" fill="red"/>
  <circle cx="0" cy="0" r="12.0096" stroke-width="0.5" stroke="black" fill="magenta"/>
   </g>
   <g id="cell288">
  <circle cx="0" cy="0" r="20" stroke-width="0.5" stroke="red" fill="red"/>
  <circle cx="0" cy="0" r="12.0096" stroke-width="0.5" stroke="black" fill="magenta"/>
   </g>
   <g id="cell287">
  <circle cx="0" cy="0" r="20" stroke-width="0.5" stroke="red" fill="red"/>
  <circle cx="0" cy="0" r="12.0096" stroke-width="0.5" stroke="black" fill="magenta"/>
   </g>
   <g id="cell267">
  <circle cx="0" cy="0" r="20" stroke-width="0.5" stroke="red" fill="red"/>
  <circle cx="0" cy="0" r="12.0096" stroke-width="0.5" stroke="black" fill="magenta"/>
   </g>
   <g id="cell266">
  <circle cx="0" cy="0" r="20" stroke-width="0.5" stroke="red" fill="red"/>
  <circle cx="0" cy="0" r="12.0096" stroke-width="0.5" stroke="black" fill="magenta"/>
   </g>
   <g id="cell218">
  <circle cx="0" cy="0" r="20" stroke-width="0.5" stroke="red" fill="red"/>
  <circle cx="0" cy="0" r="12.0096" stroke-width="0.5" stroke="black" fill="magenta"/>
   </g>
   <g id="cell219">
  <circle cx="0" cy="0" r="20" stroke-width="0.5" stroke="red" fill="red"/>
  <circle cx="0" cy="0" r="12.0096" stroke-width="0.5" stroke="black" fill="magenta"/>
   </g>
   <g id="cell220">
  <circle cx="0" cy="0" r="20" stroke-width="0.5" stroke="red" fill="red"/>
  <circle cx="0" cy="0" r="12.0096" stroke-width="0.5" stroke="black" fill="magenta"/>
   </g>
   <g id="cell221">
  <circle cx="0" cy="0" r="20" stroke-width="0.5" stroke="red" fill="red"/>
  <circle cx="0" cy="0" r="12.0096" stroke-width="0.5" stroke="black" fill="magenta"/>
   </g>
   <g id="cell222">
  <circle cx="0" cy="0" r="20" stroke-width="0.5" stroke="red" fill="red"/>
  <circle cx="0" cy="0" r="12.0096" stroke-width="0.5" stroke="black" fill="magenta"/>
   </g>
   <g id="cell223">
  <circle cx="0" cy="0" r="20" stroke-width="0.5" stroke="red" fill="red"/>
  <circle cx="0" cy="0" r="12.0096" stroke-width="0.5" stroke="black" fill="magenta"/>
   </g>
   <g id="cell224">
  <circle cx="0" cy="0" r="20" stroke-width="0.5" stroke="red" fill="red"/>
  <circle cx="0" cy="0" r="12.0096" stroke-width="0.5" stroke="black" fill="magenta"/>
   </g>
   <g id="cell225">
  <circle cx="0" cy="0" r="20" stroke-width="0.5" stroke="red" fill="red"/>
  <circle cx="0" cy="0" r="12.0096" stroke-width="0.5" stroke="black" fill="magenta"/>
   </g>
   <g id="cell226">
  <circle cx="0" cy="0" r="20" stroke-width="0.5" stroke="red" fill="red"/>
  <circle cx="0" cy="0" r="12.0096" stroke-width="0.5" stroke="black" fill="magenta"/>
   </g>
   <g id="cell227">
  <circle cx="0" cy="0" r="20" stroke-width="0.5" stroke="red" fill="red"/>
  <circle cx="0" cy="0" r="12.0096" stroke-width="0.5" stroke="black" fill="magenta"/>
   </g>
   <g id="cell228">
  <circle cx="0" cy="0" r="20" stroke-width="0.5" stroke="red" fill="red"/>
  <circle cx="0" cy="0" r="12.0096" stroke-width="0.5" stroke="black" fill="magenta"/>
   </g>
   <g id="cell229">
  <circle cx="0" cy="0" r="20" stroke-width="0.5" stroke="red" fill="red"/>
  <circle cx="0" cy="0" r="12.0096" stroke-width="0.5" stroke="black" fill="magenta"/>
   </g>
   <g id="cell230">
  <circle cx="0" cy="0" r="20" stroke-width="0.5" stroke="red" fill="red"/>
  <circle cx="0" cy="0" r="12.0096" stroke-width="0.5" stroke="black" fill="magenta"/>
   </g>
   <g id="cell231">
  <circle cx="0" cy="0" r="20" stroke-width="0.5" stroke="red" fill="red"/>
  <circle cx="0" cy="0" r="12.0096" stroke-width="0.5" stroke="black" fill="magenta"/>
   </g>
   <g id="cell232">
  <circle cx="0" cy="0" r="20" stroke-width="0.5" stroke="red" fill="red"/>
  <circle cx="0" cy="0" r="12.0096" stroke-width="0.5" stroke="black" fill="magenta"/>
   </g>
   <g id="cell233">
  <circle cx="0" cy="0" r="20" stroke-width="0.5" stroke="red" fill="red"/>
  <circle cx="0" cy="0" r="12.0096" stroke-width="0.5" stroke="black" fill="magenta"/>
   </g>
   <g id="cell234">
  <circle cx="0" cy="0" r="20" stroke-width="0.5" stroke="red" fill="red"/>
  <circle cx="0" cy="0" r="12.0096" stroke-width="0.5" stroke="black" fill="magenta"/>
   </g>
   <g id="cell235">
  <circle cx="0" cy="0" r="20" stroke-width="0.5" stroke="red" fill="red"/>
  <circle cx="0" cy="0" r="12.0096" stroke-width="0.5" stroke="black" fill="magenta"/>
   </g>
   <g id="cell236">
  <circle cx="0" cy="0" r="20" stroke-width="0.5" stroke="red" fill="red"/>
  <circle cx="0" cy="0" r="12.0096" stroke-width="0.5" stroke="black" fill="magenta"/>
   </g>
   <g id="cell237">
  <circle cx="0" cy="0" r="20" stroke-width="0.5" stroke="red" fill="red"/>
  <circle cx="0" cy="0" r="12.0096" stroke-width="0.5" stroke="black" fill="magenta"/>
   </g>
   <g id="cell238">
  <circle cx="0" cy="0" r="20" stroke-width="0.5" stroke="red" fill="red"/>
  <circle cx="0" cy="0" r="12.0096" stroke-width="0.5" stroke="black" fill="magenta"/>
   </g>
   <g id="cell265">
  <circle cx="0" cy="0" r="20" stroke-width="0.5" stroke="red" fill="red"/>
  <circle cx="0" cy="0" r="12.0096" stroke-width="0.5" stroke="black" fill="magenta"/>
   </g>
   <g id="cell264">
  <circle cx="0" cy="0" r="20" stroke-width="0.5" stroke="red" fill="red"/>
  <circle cx="0" cy="0" r="12.0096" stroke-width="0.5" stroke="black" fill="magenta"/>
   </g>
   <g id="cell263">
  <circle cx="0" cy="0" r="20" stroke-width="0.5" stroke="red" fill="red"/>
  <circle cx="0" cy="0" r="12.0096" stroke-width="0.5" stroke="black" fill="magenta"/>
   </g>
   <g id="cell262">
  <circle cx="0" cy="0" r="20" stroke-width="0.5" stroke="red" fill="red"/>
  <circle cx="0" cy="0" r="12.0096" stroke-width="0.5" stroke="black" fill="magenta"/>
   </g>
   <g id="cell261">
  <circle cx="0" cy="0" r="20" stroke-width="0.5" stroke="red" fill="red"/>
  <circle cx="0" cy="0" r="12.0096" stroke-width="0.5" stroke="black" fill="magenta"/>
   </g>
   <g id="cell260">
  <circle cx="0" cy="0" r="20" stroke-width="0.5" stroke="red" fill="red"/>
  <circle cx="0" cy="0" r="12.0096" stroke-width="0.5" stroke="black" fill="magenta"/>
   </g>
   <g id="cell259">
  <circle cx="0" cy="0" r="20" stroke-width="0.5" stroke="red" fill="red"/>
  <circle cx="0" cy="0" r="12.0096" stroke-width="0.5" stroke="black" fill="magenta"/>
   </g>
   <g id="cell258">
  <circle cx="0" cy="0" r="20" stroke-width="0.5" stroke="red" fill="red"/>
  <circle cx="0" cy="0" r="12.0096" stroke-width="0.5" stroke="black" fill="magenta"/>
   </g>
   <g id="cell257">
  <circle cx="0" cy="0" r="20" stroke-width="0.5" stroke="red" fill="red"/>
  <circle cx="0" cy="0" r="12.0096" stroke-width="0.5" stroke="black" fill="magenta"/>
   </g>
   <g id="cell248">
  <circle cx="0" cy="0" r="20" stroke-width="0.5" stroke="red" fill="red"/>
  <circle cx="0" cy="0" r="12.0096" stroke-width="0.5" stroke="black" fill="magenta"/>
   </g>
   <g id="cell249">
  <circle cx="0" cy="0" r="20" stroke-width="0.5" stroke="red" fill="red"/>
  <circle cx="0" cy="0" r="12.0096" stroke-width="0.5" stroke="black" fill="magenta"/>
   </g>
   <g id="cell250">
  <circle cx="0" cy="0" r="20" stroke-width="0.5" stroke="red" fill="red"/>
  <circle cx="0" cy="0" r="12.0096" stroke-width="0.5" stroke="black" fill="magenta"/>
   </g>
  </g>
 </g>
  <rect x="775" y="1035" width="200" height="10" stroke-width="2" stroke="rgb(255,255,255)" fill="rgb(0,0,0)"/>
  <text x="781.25" y="1028.75"
   font-family="Arial" font-size="25" fill="black" >
   200 &#956;m
  </text>
  <text x="25" y="1045"
   font-family="Arial" font-size="18.75" fill="black" >
   0 days, 0 hours, 1 minutes, and 55.0097 seconds
  </text>
  <rect x="0" y="70" width="1000" height="1000" stroke-width="2" stroke="rgb(0,0,0)" fill="none"/>
</svg>
